<?xml version="1.0" encoding="UTF-8" standalone="no"?>
<!-- Created with Inkscape (http://www.inkscape.org/) -->

<svg
   xmlns:dc="http://purl.org/dc/elements/1.1/"
   xmlns:cc="http://creativecommons.org/ns#"
   xmlns:rdf="http://www.w3.org/1999/02/22-rdf-syntax-ns#"
   xmlns:svg="http://www.w3.org/2000/svg"
   xmlns="http://www.w3.org/2000/svg"
   xmlns:sodipodi="http://sodipodi.sourceforge.net/DTD/sodipodi-0.dtd"
   xmlns:inkscape="http://www.inkscape.org/namespaces/inkscape"
   width="744.09448819"
   height="1052.3622047"
   id="svg2"
   version="1.1"
   inkscape:version="0.48.1 r9760"
   sodipodi:docname="New document 1">
  <defs
     id="defs4" />
  <sodipodi:namedview
     id="base"
     pagecolor="#ffffff"
     bordercolor="#666666"
     borderopacity="1.0"
     inkscape:pageopacity="0.0"
     inkscape:pageshadow="2"
     inkscape:zoom="2.8284271"
     inkscape:cx="85.871828"
     inkscape:cy="1008.5124"
     inkscape:document-units="px"
     inkscape:current-layer="layer1"
     showgrid="false"
     inkscape:window-width="1364"
     inkscape:window-height="766"
     inkscape:window-x="0"
     inkscape:window-y="0"
     inkscape:window-maximized="0" />
  <metadata
     id="metadata7">
    <rdf:RDF>
      <cc:Work
         rdf:about="">
        <dc:format>image/svg+xml</dc:format>
        <dc:type
           rdf:resource="http://purl.org/dc/dcmitype/StillImage" />
        <dc:title></dc:title>
      </cc:Work>
    </rdf:RDF>
  </metadata>
  <g
     inkscape:label="Layer 1"
     inkscape:groupmode="layer"
     id="layer1">
    <path
       style="fill:#3c9682;fill-opacity:0.45374451;stroke:none"
       d="m 24.490197,21.105393 c -5.506806,-0.6297 -7.71302,0.225506 -2.78125,4.40625 4.84776,5.089668 8.545153,11.292396 14.59375,15.125 6.831886,-5.581456 13.669015,-11.657137 18.09375,-19.34375 -9.979122,-0.30982 -19.929011,0.191057 -29.90625,-0.1875 z"
       id="path3885"
       inkscape:connector-curvature="0" />
    <path
       style="fill:#3c9682;fill-opacity:0.45374451;stroke:none"
       d="m 89.302697,21.511643 c -5.544111,6.266054 -11.940737,11.770943 -17.15625,18.4375 11.253289,-0.391618 22.867948,0.462022 33.906253,-0.375 3.68363,-3.439963 -3.11843,-6.689536 -4.96875,-9.09375 -3.028517,-3.844225 -6.799524,-6.773502 -10.437503,-10.09375 l -0.766758,0.641937 -0.576992,0.483063 z"
       id="path3887"
       inkscape:connector-curvature="0" />
    <path
       style="fill:#5bd29b;stroke:#000000;stroke-width:3;stroke-linecap:round;stroke-linejoin:round;stroke-miterlimit:4;stroke-opacity:1;stroke-dasharray:none;fill-opacity:1"
       d="m 19.13107,19.613889 c 1.115944,1.445637 2.450367,2.506121 3.290587,3.810974 1.821554,1.363295 2.594908,3.375007 4.017558,5.098238 1.133644,0.981516 2.516223,2.003176 3.292107,3.279947 0.865312,0.710824 2.435983,2.36284 3.303231,2.865395 1.033879,-0.705153 1.799583,-1.601771 2.566789,-2.239281 1.183482,-0.724175 2.179479,-1.684396 3.045418,-2.774677 1.219045,-1.384888 2.381843,-2.221199 3.565895,-3.639142 0.787412,-0.823642 2.25164,-2.069955 2.860909,-3.019884 1.187911,-1.248312 1.861864,-1.921503 2.769885,-3.420267 -1.452831,-0.144901 -3.164416,0.159272 -4.621598,0.122702 -2.169756,0.109871 -4.26768,-0.285155 -6.414742,0.108413 -2.472762,-0.300069 -5.839367,0.04612 -7.932114,-0.103115 -1.818196,0.08802 -3.639207,-0.06344 -5.442031,-0.261252 -1.519795,0.07987 -2.542411,0.20023 -4.301894,0.171949 z"
       id="path3002"
       inkscape:connector-curvature="0"
       sodipodi:nodetypes="ccccccccccccccc" />
    <path
       style="fill:#5bd29b;stroke:#000000;stroke-width:3;stroke-linecap:round;stroke-linejoin:round;stroke-miterlimit:4;stroke-opacity:1;stroke-dasharray:none;fill-opacity:1"
       d="m 87.412925,19.510777 c 2.126253,2.092541 4.244849,3.411973 6.908459,6.320067 1.4242,2.348315 4.587091,4.435454 7.195236,7.316826 1.83653,1.985679 -1.33151,0.932147 -2.896658,0.983841 -2.562006,0.618208 -9.234795,0.111755 -11.459054,0.217193 -5.600851,0.02138 -8.23271,-0.0054 -13.833545,0.02254 1.572721,-1.766183 2.501362,-3.154441 4.475056,-4.747767 1.527523,-1.442652 2.778504,-3.330883 4.823125,-4.949254 1.555995,-1.048506 2.528522,-3.344309 4.787381,-5.163444 z"
       id="path3043"
       inkscape:connector-curvature="0"
       sodipodi:nodetypes="ccccccccc" />
  </g>
</svg>
