<?xml version="1.0" encoding="UTF-8" standalone="no"?>
<!-- Created with Inkscape (http://www.inkscape.org/) -->

<svg
   xmlns:dc="http://purl.org/dc/elements/1.1/"
   xmlns:cc="http://creativecommons.org/ns#"
   xmlns:rdf="http://www.w3.org/1999/02/22-rdf-syntax-ns#"
   xmlns:svg="http://www.w3.org/2000/svg"
   xmlns="http://www.w3.org/2000/svg"
   xmlns:sodipodi="http://sodipodi.sourceforge.net/DTD/sodipodi-0.dtd"
   xmlns:inkscape="http://www.inkscape.org/namespaces/inkscape"
   width="744.09448819"
   height="1052.3622047"
   id="svg2"
   version="1.1"
   inkscape:version="0.48.1 r9760"
   sodipodi:docname="icons.svg">
  <defs
     id="defs4">
    <inkscape:perspective
       sodipodi:type="inkscape:persp3d"
       inkscape:vp_x="0 : 526.18109 : 1"
       inkscape:vp_y="0 : 1000 : 0"
       inkscape:vp_z="744.09448 : 526.18109 : 1"
       inkscape:persp3d-origin="372.04724 : 350.78739 : 1"
       id="perspective4200" />
  </defs>
  <sodipodi:namedview
     id="base"
     pagecolor="#ffffff"
     bordercolor="#666666"
     borderopacity="1.0"
     inkscape:pageopacity="0.0"
     inkscape:pageshadow="2"
     inkscape:zoom="8"
     inkscape:cx="153.71538"
     inkscape:cy="982.84485"
     inkscape:document-units="px"
     inkscape:current-layer="layer1"
     showgrid="false"
     inkscape:window-width="1364"
     inkscape:window-height="766"
     inkscape:window-x="0"
     inkscape:window-y="0"
     inkscape:window-maximized="0" />
  <metadata
     id="metadata7">
    <rdf:RDF>
      <cc:Work
         rdf:about="">
        <dc:format>image/svg+xml</dc:format>
        <dc:type
           rdf:resource="http://purl.org/dc/dcmitype/StillImage" />
        <dc:title></dc:title>
      </cc:Work>
    </rdf:RDF>
  </metadata>
  <g
     inkscape:label="Layer 1"
     inkscape:groupmode="layer"
     id="layer1">
    <path
       sodipodi:nodetypes="ccccccccccccscccccsscccccccccccssccccccccsccccccccscc"
       inkscape:connector-curvature="0"
       id="path4232"
       d="m 161.71529,64.902991 c -0.0194,0.02365 -0.24303,0.136123 -0.24303,0.198909 -2e-5,0.0795 -0.17675,0.191179 -0.17678,0.265165 0,0.297989 -1.62076,1.66489 -1.94457,1.988703 -0.14503,0.145027 -0.32722,0.283091 -0.46401,0.41988 -0.0208,0.02083 -0.009,0.0604 0,0.08839 0.0321,0.09641 0.78337,0.80618 0.88389,0.839689 0.15498,0.05166 0.96232,0.962323 1.12695,1.126952 0.0276,0.02758 0.49219,0.568471 0.48613,0.574524 -0.21571,0.215711 -0.63144,0.701024 -0.7292,0.994369 -0.0469,0.140508 -1.23089,1.098373 -1.43628,1.303763 -0.0585,0.05856 -0.55242,0.284716 -0.55239,0.41988 1e-5,0.258006 0.81938,0.732768 0.95018,0.994369 0.20048,0.400967 0.65774,0.674672 0.86178,1.082758 0.053,0.106066 0.21213,0.159099 0.26517,0.265165 0.0893,0.178537 0.37933,0.342501 0.44194,0.53033 0.0157,0.04732 0.25655,0.433329 0.26516,0.441941 0.0303,0.03034 0.0527,-0.06971 0.0663,-0.11045 0.0164,-0.04907 0.11727,-0.11727 0.15468,-0.154679 0.13995,-0.139949 0.2799,-0.279896 0.41985,-0.419845 0.44509,-0.445098 1.1885,-1.290324 1.74567,-1.568893 0.23674,-0.118377 0.39035,-0.530358 0.61871,-0.53033 0.142,10e-7 0.38615,0.446651 0.44195,0.53033 0.25624,0.384369 1.33766,1.377911 1.72357,1.635184 0.0961,0.06405 0.50623,0.508212 0.59662,0.508233 0.0345,-2.1e-5 0.0192,-0.05767 0.0221,-0.06625 0.0685,-0.205415 0.23469,-0.403094 0.33146,-0.596622 0.24854,-0.497073 0.8478,-0.897585 1.30369,-1.171181 0.3683,-0.220981 0.60359,-0.662706 0.97227,-0.883883 0.0659,-0.03958 0.59373,-0.37855 0.68498,-0.552463 -0.0179,-0.150504 -0.28617,-0.186727 -0.39775,-0.298311 -0.20646,-0.206461 -0.38054,-0.327054 -0.61872,-0.497184 -0.24621,-0.175864 -0.4555,-0.406784 -0.70711,-0.574524 -0.20219,-0.134796 -0.32223,-0.405476 -0.53033,-0.53033 -0.16938,-0.101626 -0.293,-0.290176 -0.46403,-0.375651 -0.017,-0.0085 -0.29002,-0.196116 -0.28727,-0.198874 0.0984,-0.09842 0.41921,-0.27589 0.57453,-0.353553 0.17025,-0.08512 0.27523,-0.314406 0.4419,-0.397783 0.17602,-0.08805 0.40348,-0.409133 0.48614,-0.574524 0.066,-0.132066 0.26947,-0.225345 0.37562,-0.331492 0.1854,-0.185402 0.32808,-0.416475 0.50823,-0.596621 0.23132,-0.231325 0.41179,-0.455915 0.64085,-0.684974 0.0173,-0.0173 0.11049,-0.08843 0.11048,-0.110486 3e-5,-0.05928 -1.20457,-1.113354 -1.37001,-1.237437 -0.37047,-0.27785 -0.88047,-0.853287 -1.30373,-0.994369 -0.0976,-0.03252 -0.30771,-0.219316 -0.37565,-0.287262 -0.0397,-0.03967 -0.14463,-0.133581 -0.22098,-0.176776 -0.11463,0.04006 -0.62202,0.554978 -0.72921,0.640815 -0.0749,0.05067 -1.53759,1.672689 -1.90702,2.004169 -0.38019,-0.452385 -0.85902,-0.991299 -1.62852,-1.562192 -0.12897,-0.07738 -0.24602,-0.246024 -0.35355,-0.353553 -0.3187,-0.3187 -0.66099,-0.562999 -1.06066,-0.662913 z"
       style="fill:#864b4c;fill-opacity:0.53070176;stroke:none" />
    <path
       sodipodi:nodetypes="cssscsssscccscccccccssssccccc"
       inkscape:connector-curvature="0"
       id="path4224"
       d="m 137.04415,70.484421 c 0.0106,0.0437 -0.10334,-0.31934 -0.10334,-0.723293 0,-0.302888 -0.12418,-1.322399 0.0516,-1.49825 0.29975,-0.29974 2.17607,-0.206655 2.84152,-0.206655 0.17752,0 0.84747,0.185794 0.98161,0.05166 0.25372,-0.253712 -0.4583,-3.462957 0.10592,-4.027177 0.13123,-0.131227 1.00211,0.03653 1.15281,0.03653 0.35232,0 1.75122,-0.213223 1.99608,-0.09079 0.18455,0.09227 0.46784,0.109055 0.5683,0.309983 0.072,0.144036 0.11732,0.337972 0.20666,0.516638 0.10451,0.20902 -0.0699,1.051488 -0.15499,1.136602 -9e-4,0.0013 -0.0298,1.823802 0.10333,2.066551 0.16623,0.275854 0.65184,0.02602 1.04689,0.109596 0.38339,0.08112 2.39844,-0.125734 2.5179,-0.0062 0.3807,0.68002 0.098,1.675205 0.155,2.428197 0.13321,0.266421 0.21204,1.288812 -0.0642,1.565047 -0.72883,0.06752 -1.74064,0.121321 -2.18393,0.09705 -0.44838,-0.08309 -1.33131,-0.05321 -1.42,-0.0089 -0.28578,0.572169 -0.0987,1.438424 0,2.066552 0.0703,0.140575 -0.18438,1.889276 -0.25832,1.963224 -0.0924,0.09236 -0.41877,0.108791 -0.51664,0.206655 -0.11505,0.115055 -1.20575,-0.120412 -1.44659,0 -0.23858,0.119292 -0.64855,0.05166 -0.92995,0.05166 -0.32329,0 -0.61457,-0.09794 -0.77495,-0.258319 -0.16498,-0.164985 -0.38649,-2.585181 -0.20665,-2.944836 0.12801,-0.256031 0.0842,-0.89746 -0.0517,-1.033275 -0.18834,-0.188347 -3.13542,0.22272 -3.35815,0 -0.0788,-0.48127 -0.1904,-0.718418 -0.19373,-0.981612 0,-0.12178 -0.0646,-0.826623 -0.0646,-0.826623 z"
       style="fill:#7ca244;fill-opacity:0.59649122;stroke:none;stroke-width:1;stroke-linecap:butt;stroke-linejoin:miter;stroke-miterlimit:4;stroke-opacity:1;stroke-dasharray:none"
       inkscape:export-filename="/home/substack/projects/testling/static/images/ok.png"
       inkscape:export-xdpi="100"
       inkscape:export-ydpi="100" />
    <path
       style="fill:#3c9682;fill-opacity:0.45374451;stroke:none"
       d="m 24.490197,21.105393 c -5.506806,-0.6297 -7.71302,0.225506 -2.78125,4.40625 4.84776,5.089668 8.545153,11.292396 14.59375,15.125 6.831886,-5.581456 13.669015,-11.657137 18.09375,-19.34375 -9.979122,-0.30982 -19.929011,0.191057 -29.90625,-0.1875 z"
       id="path3885"
       inkscape:connector-curvature="0"
       inkscape:export-filename="/home/substack/projects/testling/static/images/down.png"
       inkscape:export-xdpi="100"
       inkscape:export-ydpi="100" />
    <path
       style="fill:#3c9682;fill-opacity:0.45374451;stroke:none"
       d="m 89.302697,21.511643 c -5.544111,6.266054 -11.940737,11.770943 -17.15625,18.4375 11.253289,-0.391618 22.867948,0.462022 33.906253,-0.375 3.68363,-3.439963 -3.11843,-6.689536 -4.96875,-9.09375 -3.028517,-3.844225 -6.799524,-6.773502 -10.437503,-10.09375 l -0.766758,0.641937 -0.576992,0.483063 z"
       id="path3887"
       inkscape:connector-curvature="0"
       inkscape:export-filename="/home/substack/projects/testling/static/images/up.png"
       inkscape:export-xdpi="100"
       inkscape:export-ydpi="100" />
    <path
       style="fill:#5bd29b;stroke:#000000;stroke-width:3;stroke-linecap:round;stroke-linejoin:round;stroke-miterlimit:4;stroke-opacity:1;stroke-dasharray:none;fill-opacity:1"
       d="m 19.13107,19.613889 c 1.115944,1.445637 2.450367,2.506121 3.290587,3.810974 1.821554,1.363295 2.594908,3.375007 4.017558,5.098238 1.133644,0.981516 2.516223,2.003176 3.292107,3.279947 0.865312,0.710824 2.435983,2.36284 3.303231,2.865395 1.033879,-0.705153 1.799583,-1.601771 2.566789,-2.239281 1.183482,-0.724175 2.179479,-1.684396 3.045418,-2.774677 1.219045,-1.384888 2.381843,-2.221199 3.565895,-3.639142 0.787412,-0.823642 2.25164,-2.069955 2.860909,-3.019884 1.187911,-1.248312 1.861864,-1.921503 2.769885,-3.420267 -1.452831,-0.144901 -3.164416,0.159272 -4.621598,0.122702 -2.169756,0.109871 -4.26768,-0.285155 -6.414742,0.108413 -2.472762,-0.300069 -5.839367,0.04612 -7.932114,-0.103115 -1.818196,0.08802 -3.639207,-0.06344 -5.442031,-0.261252 -1.519795,0.07987 -2.542411,0.20023 -4.301894,0.171949 z"
       id="path3002"
       inkscape:connector-curvature="0"
       sodipodi:nodetypes="ccccccccccccccc"
       inkscape:export-filename="/home/substack/projects/testling/static/images/down.png"
       inkscape:export-xdpi="100"
       inkscape:export-ydpi="100" />
    <path
       style="fill:#5bd29b;stroke:#000000;stroke-width:3;stroke-linecap:round;stroke-linejoin:round;stroke-miterlimit:4;stroke-opacity:1;stroke-dasharray:none;fill-opacity:1"
       d="m 87.412925,19.510777 c 2.126253,2.092541 4.244849,3.411973 6.908459,6.320067 1.4242,2.348315 4.587091,4.435454 7.195236,7.316826 1.83653,1.985679 -1.33151,0.932147 -2.896658,0.983841 -2.562006,0.618208 -9.234795,0.111755 -11.459054,0.217193 -5.600851,0.02138 -8.23271,-0.0054 -13.833545,0.02254 1.572721,-1.766183 2.501362,-3.154441 4.475056,-4.747767 1.527523,-1.442652 2.778504,-3.330883 4.823125,-4.949254 1.555995,-1.048506 2.528522,-3.344309 4.787381,-5.163444 z"
       id="path3043"
       inkscape:connector-curvature="0"
       sodipodi:nodetypes="ccccccccc"
       inkscape:export-filename="/home/substack/projects/testling/static/images/up.png"
       inkscape:export-xdpi="100"
       inkscape:export-ydpi="100" />
    <path
       inkscape:export-ydpi="100"
       inkscape:export-xdpi="100"
       inkscape:export-filename="/home/substack/projects/testling/static/images/down_fail.png"
       inkscape:connector-curvature="0"
       id="path3912"
       d="m 24.490197,60.34982 c -5.506806,-0.6297 -7.71302,0.225506 -2.78125,4.40625 4.84776,5.089668 8.545153,11.292396 14.59375,15.125 6.831886,-5.581456 13.669015,-11.657137 18.09375,-19.34375 -9.979122,-0.30982 -19.929011,0.191057 -29.90625,-0.1875 z"
       style="fill:#96433c;fill-opacity:0.4537445;stroke:none" />
    <path
       inkscape:export-ydpi="100"
       inkscape:export-xdpi="100"
       inkscape:export-filename="/home/substack/projects/testling/static/images/up_fail.png"
       inkscape:connector-curvature="0"
       id="path3914"
       d="m 89.302697,60.75607 c -5.544111,6.266054 -11.940737,11.770943 -17.15625,18.4375 11.253289,-0.391618 22.867948,0.462022 33.906253,-0.375 3.68363,-3.439963 -3.11843,-6.689536 -4.96875,-9.09375 -3.028517,-3.844225 -6.799524,-6.773502 -10.437503,-10.09375 l -0.766758,0.641937 -0.576992,0.483063 z"
       style="fill:#96433c;fill-opacity:0.4537445;stroke:none" />
    <path
       inkscape:export-ydpi="100"
       inkscape:export-xdpi="100"
       inkscape:export-filename="/home/substack/projects/testling/static/images/down_fail.png"
       sodipodi:nodetypes="ccccccccccccccc"
       inkscape:connector-curvature="0"
       id="path3916"
       d="m 19.13107,58.858316 c 1.115944,1.445637 2.450367,2.506121 3.290587,3.810974 1.821554,1.363295 2.594908,3.375007 4.017558,5.098238 1.133644,0.981516 2.516223,2.003176 3.292107,3.279947 0.865312,0.710824 2.435983,2.36284 3.303231,2.865395 1.033879,-0.705153 1.799583,-1.601771 2.566789,-2.239281 1.183482,-0.724175 2.179479,-1.684396 3.045418,-2.774677 1.219045,-1.384888 2.381843,-2.221199 3.565895,-3.639142 0.787412,-0.823642 2.25164,-2.069955 2.860909,-3.019884 1.187911,-1.248312 1.861864,-1.921503 2.769885,-3.420267 -1.452831,-0.144901 -3.164416,0.159272 -4.621598,0.122702 -2.169756,0.109871 -4.26768,-0.285155 -6.414742,0.108413 -2.472762,-0.300069 -5.839367,0.04612 -7.932114,-0.103115 -1.818196,0.08802 -3.639207,-0.06344 -5.442031,-0.261252 -1.519795,0.07987 -2.542411,0.20023 -4.301894,0.171949 z"
       style="fill:#ff3828;fill-opacity:1;stroke:#000000;stroke-width:3;stroke-linecap:round;stroke-linejoin:round;stroke-miterlimit:4;stroke-opacity:1;stroke-dasharray:none" />
    <path
       inkscape:export-ydpi="100"
       inkscape:export-xdpi="100"
       inkscape:export-filename="/home/substack/projects/testling/static/images/up_fail.png"
       sodipodi:nodetypes="ccccccccc"
       inkscape:connector-curvature="0"
       id="path3918"
       d="m 87.412925,58.755204 c 2.126253,2.092541 4.244849,3.411973 6.908459,6.320067 1.4242,2.348315 4.587091,4.435454 7.195236,7.316826 1.83653,1.985679 -1.33151,0.932147 -2.896658,0.983841 -2.562006,0.618208 -9.234795,0.111755 -11.459054,0.217193 -5.600851,0.02138 -8.23271,-0.0054 -13.833545,0.02254 1.572721,-1.766183 2.501362,-3.154441 4.475056,-4.747767 1.527523,-1.442652 2.778504,-3.330883 4.823125,-4.949254 1.555995,-1.048506 2.528522,-3.344309 4.787381,-5.163444 z"
       style="fill:#ff3828;fill-opacity:1;stroke:#000000;stroke-width:3;stroke-linecap:round;stroke-linejoin:round;stroke-miterlimit:4;stroke-opacity:1;stroke-dasharray:none" />
    <path
       style="fill:none;stroke:#000000;stroke-width:1px;stroke-linecap:butt;stroke-linejoin:miter;stroke-opacity:1"
       d="m 133.25,25.362182 c 2.83789,0.192757 14.1547,12 15,12 0.0183,0 -0.0229,-0.704129 0,-0.75 0.29014,-0.580287 0.82947,-1.189289 1.25,-1.75 1.65482,-2.206427 4.51559,-3.760397 6.75,-5.25 7.25157,-4.83438 15.23256,-7.245245 23.5,-9.5 1.85529,-0.505989 3.58136,-1.25 5.5,-1.25"
       id="path3920"
       inkscape:connector-curvature="0" />
    <path
       style="fill:#a3ff34;fill-opacity:1;stroke:#000000;stroke-width:1;stroke-linecap:butt;stroke-linejoin:miter;stroke-miterlimit:4;stroke-opacity:1;stroke-dasharray:none"
       d="m 135.45316,69.070207 c 0.0106,0.0437 -0.10334,-0.31934 -0.10334,-0.723293 0,-0.302888 -0.12418,-1.322399 0.0516,-1.49825 0.29975,-0.29974 2.17607,-0.206655 2.84152,-0.206655 0.17752,0 0.84747,0.185794 0.98161,0.05166 0.25372,-0.253712 -0.4583,-3.462957 0.10592,-4.027177 0.13123,-0.131227 1.00211,0.03653 1.15281,0.03653 0.35232,0 1.75122,-0.213223 1.99608,-0.09079 0.18455,0.09227 0.46784,0.109055 0.5683,0.309983 0.072,0.144036 0.11732,0.337972 0.20666,0.516638 0.10451,0.20902 -0.0699,1.051488 -0.15499,1.136602 -9e-4,0.0013 -0.0298,1.823802 0.10333,2.066551 0.16623,0.275854 0.65184,0.02602 1.04689,0.109596 0.38339,0.08112 2.39844,-0.125734 2.5179,-0.0062 0.3807,0.68002 0.098,1.675205 0.155,2.428197 0.13321,0.266421 0.21204,1.288812 -0.0642,1.565047 -0.72883,0.06752 -1.74064,0.121321 -2.18393,0.09705 -0.44838,-0.08309 -1.33131,-0.05321 -1.42,-0.0089 -0.28578,0.572169 -0.0987,1.438424 0,2.066552 0.0703,0.140575 -0.18438,1.889276 -0.25832,1.963224 -0.0924,0.09236 -0.41877,0.108791 -0.51664,0.206655 -0.11505,0.115055 -1.20575,-0.120412 -1.44659,0 -0.23858,0.119292 -0.64855,0.05166 -0.92995,0.05166 -0.32329,0 -0.61457,-0.09794 -0.77495,-0.258319 -0.16498,-0.164985 -0.38649,-2.585181 -0.20665,-2.944836 0.12801,-0.256031 0.0842,-0.89746 -0.0517,-1.033275 -0.18834,-0.188347 -3.13542,0.22272 -3.35815,0 -0.0788,-0.48127 -0.1904,-0.718418 -0.19373,-0.981612 0,-0.12178 -0.0646,-0.826623 -0.0646,-0.826623 z"
       id="path4165"
       inkscape:connector-curvature="0"
       sodipodi:nodetypes="cssscsssscccscccccccssssccccc"
       inkscape:export-filename="/home/substack/projects/testling/static/images/ok.png"
       inkscape:export-xdpi="100"
       inkscape:export-ydpi="100" />
    <path
       style="fill:#7ca244;fill-opacity:0.59649122;stroke:none;stroke-width:1;stroke-linecap:butt;stroke-linejoin:miter;stroke-miterlimit:4;stroke-opacity:1;stroke-dasharray:none"
       d="m 137.04415,70.484421 c 0.0106,0.0437 -0.10334,-0.31934 -0.10334,-0.723293 0,-0.302888 -0.12418,-1.322399 0.0516,-1.49825 0.29975,-0.29974 2.17607,-0.206655 2.84152,-0.206655 0.17752,0 0.84747,0.185794 0.98161,0.05166 0.25372,-0.253712 -0.4583,-3.462957 0.10592,-4.027177 0.13123,-0.131227 1.00211,0.03653 1.15281,0.03653 0.35232,0 1.75122,-0.213223 1.99608,-0.09079 0.18455,0.09227 0.46784,0.109055 0.5683,0.309983 0.072,0.144036 0.11732,0.337972 0.20666,0.516638 0.10451,0.20902 -0.0699,1.051488 -0.15499,1.136602 -9e-4,0.0013 -0.0298,1.823802 0.10333,2.066551 0.16623,0.275854 0.65184,0.02602 1.04689,0.109596 0.38339,0.08112 2.39844,-0.125734 2.5179,-0.0062 0.3807,0.68002 0.098,1.675205 0.155,2.428197 0.13321,0.266421 0.21204,1.288812 -0.0642,1.565047 -0.72883,0.06752 -1.74064,0.121321 -2.18393,0.09705 -0.44838,-0.08309 -1.33131,-0.05321 -1.42,-0.0089 -0.28578,0.572169 -0.0987,1.438424 0,2.066552 0.0703,0.140575 -0.18438,1.889276 -0.25832,1.963224 -0.0924,0.09236 -0.41877,0.108791 -0.51664,0.206655 -0.11505,0.115055 -1.20575,-0.120412 -1.44659,0 -0.23858,0.119292 -0.64855,0.05166 -0.92995,0.05166 -0.32329,0 -0.61457,-0.09794 -0.77495,-0.258319 -0.16498,-0.164985 -0.38649,-2.585181 -0.20665,-2.944836 0.12801,-0.256031 0.0842,-0.89746 -0.0517,-1.033275 -0.18834,-0.188347 -3.13542,0.22272 -3.35815,0 -0.0788,-0.48127 -0.1904,-0.718418 -0.19373,-0.981612 0,-0.12178 -0.0646,-0.826623 -0.0646,-0.826623 z"
       id="path4226"
       inkscape:connector-curvature="0"
       sodipodi:nodetypes="cssscsssscccscccccccssssccccc"
       inkscape:export-filename="/home/substack/projects/testling/static/images/ok.png"
       inkscape:export-xdpi="100"
       inkscape:export-ydpi="100" />
    <path
       sodipodi:nodetypes="cssscsssscccscccccccssssccccc"
       inkscape:connector-curvature="0"
       id="path4228"
       d="m 135.45316,69.070207 c 0.0106,0.0437 -0.10334,-0.31934 -0.10334,-0.723293 0,-0.302888 -0.12418,-1.322399 0.0516,-1.49825 0.29975,-0.29974 2.17607,-0.206655 2.84152,-0.206655 0.17752,0 0.84747,0.185794 0.98161,0.05166 0.25372,-0.253712 -0.4583,-3.462957 0.10592,-4.027177 0.13123,-0.131227 1.00211,0.03653 1.15281,0.03653 0.35232,0 1.75122,-0.213223 1.99608,-0.09079 0.18455,0.09227 0.46784,0.109055 0.5683,0.309983 0.072,0.144036 0.11732,0.337972 0.20666,0.516638 0.10451,0.20902 -0.0699,1.051488 -0.15499,1.136602 -9e-4,0.0013 -0.0298,1.823802 0.10333,2.066551 0.16623,0.275854 0.65184,0.02602 1.04689,0.109596 0.38339,0.08112 2.39844,-0.125734 2.5179,-0.0062 0.3807,0.68002 0.098,1.675205 0.155,2.428197 0.13321,0.266421 0.21204,1.288812 -0.0642,1.565047 -0.72883,0.06752 -1.74064,0.121321 -2.18393,0.09705 -0.44838,-0.08309 -1.33131,-0.05321 -1.42,-0.0089 -0.28578,0.572169 -0.0987,1.438424 0,2.066552 0.0703,0.140575 -0.18438,1.889276 -0.25832,1.963224 -0.0924,0.09236 -0.41877,0.108791 -0.51664,0.206655 -0.11505,0.115055 -1.20575,-0.120412 -1.44659,0 -0.23858,0.119292 -0.64855,0.05166 -0.92995,0.05166 -0.32329,0 -0.61457,-0.09794 -0.77495,-0.258319 -0.16498,-0.164985 -0.38649,-2.585181 -0.20665,-2.944836 0.12801,-0.256031 0.0842,-0.89746 -0.0517,-1.033275 -0.18834,-0.188347 -3.13542,0.22272 -3.35815,0 -0.0788,-0.48127 -0.1904,-0.718418 -0.19373,-0.981612 0,-0.12178 -0.0646,-0.826623 -0.0646,-0.826623 z"
       style="fill:#a3ff34;fill-opacity:1;stroke:#000000;stroke-width:1;stroke-linecap:butt;stroke-linejoin:miter;stroke-miterlimit:4;stroke-opacity:1;stroke-dasharray:none"
       inkscape:export-filename="/home/substack/projects/testling/static/images/ok.png"
       inkscape:export-xdpi="100"
       inkscape:export-ydpi="100" />
    <path
       style="fill:#fb181e;fill-opacity:1;stroke:#000000;stroke-width:1px;stroke-linecap:butt;stroke-linejoin:miter;stroke-opacity:1"
       d="m 160.21269,63.135224 c -0.0194,0.02365 -0.24303,0.136123 -0.24303,0.198909 -2e-5,0.0795 -0.17675,0.191179 -0.17678,0.265165 0,0.297989 -1.62076,1.66489 -1.94457,1.988703 -0.14503,0.145027 -0.32722,0.283091 -0.46401,0.41988 -0.0208,0.02083 -0.009,0.0604 0,0.08839 0.0321,0.09641 0.78337,0.80618 0.88389,0.839689 0.15498,0.05166 0.96232,0.962323 1.12695,1.126952 0.0276,0.02758 0.49219,0.568471 0.48613,0.574524 -0.21571,0.215711 -0.63144,0.701024 -0.7292,0.994369 -0.0469,0.140508 -1.23089,1.098373 -1.43628,1.303763 -0.0585,0.05856 -0.55242,0.284716 -0.55239,0.41988 1e-5,0.258006 0.81938,0.732768 0.95018,0.994369 0.20048,0.400967 0.65774,0.674672 0.86178,1.082758 0.053,0.106066 0.21213,0.159099 0.26517,0.265165 0.0893,0.178537 0.37933,0.342501 0.44194,0.53033 0.0157,0.04732 0.25655,0.433329 0.26516,0.441941 0.0303,0.03034 0.0527,-0.06971 0.0663,-0.11045 0.0164,-0.04907 0.11727,-0.11727 0.15468,-0.154679 0.13995,-0.139949 0.2799,-0.279896 0.41985,-0.419845 0.44509,-0.445098 1.1885,-1.290324 1.74567,-1.568893 0.23674,-0.118377 0.39035,-0.530358 0.61871,-0.53033 0.142,10e-7 0.38615,0.446651 0.44195,0.53033 0.25624,0.384369 1.33766,1.377911 1.72357,1.635184 0.0961,0.06405 0.50623,0.508212 0.59662,0.508233 0.0345,-2.1e-5 0.0192,-0.05767 0.0221,-0.06625 0.0685,-0.205415 0.23469,-0.403094 0.33146,-0.596622 0.24854,-0.497073 0.8478,-0.897585 1.30369,-1.171181 0.3683,-0.220981 0.60359,-0.662706 0.97227,-0.883883 0.0659,-0.03958 0.59373,-0.37855 0.68498,-0.552463 -0.0179,-0.150504 -0.28617,-0.186727 -0.39775,-0.298311 -0.20646,-0.206461 -0.38054,-0.327054 -0.61872,-0.497184 -0.24621,-0.175864 -0.4555,-0.406784 -0.70711,-0.574524 -0.20219,-0.134796 -0.32223,-0.405476 -0.53033,-0.53033 -0.16938,-0.101626 -0.293,-0.290176 -0.46403,-0.375651 -0.017,-0.0085 -0.29002,-0.196116 -0.28727,-0.198874 0.0984,-0.09842 0.41921,-0.27589 0.57453,-0.353553 0.17025,-0.08512 0.27523,-0.314406 0.4419,-0.397783 0.17602,-0.08805 0.40348,-0.409133 0.48614,-0.574524 0.066,-0.132066 0.26947,-0.225345 0.37562,-0.331492 0.1854,-0.185402 0.32808,-0.416475 0.50823,-0.596621 0.23132,-0.231325 0.41179,-0.455915 0.64085,-0.684974 0.0173,-0.0173 0.11049,-0.08843 0.11048,-0.110486 3e-5,-0.05928 -1.20457,-1.113354 -1.37001,-1.237437 -0.37047,-0.27785 -0.88047,-0.853287 -1.30373,-0.994369 -0.0976,-0.03252 -0.30771,-0.219316 -0.37565,-0.287262 -0.0397,-0.03967 -0.14463,-0.133581 -0.22098,-0.176776 -0.11463,0.04006 -0.62202,0.554978 -0.72921,0.640815 -0.0749,0.05067 -1.53759,1.672689 -1.90702,2.004169 -0.38019,-0.452385 -0.85902,-0.991299 -1.62852,-1.562192 -0.12897,-0.07738 -0.24602,-0.246024 -0.35355,-0.353553 -0.3187,-0.3187 -0.66099,-0.562999 -1.06066,-0.662913 z"
       id="path4230"
       inkscape:connector-curvature="0"
       sodipodi:nodetypes="ccccccccccccscccccsscccccccccccssccccccccsccccccccscc" />
  </g>
</svg>
