<?xml version="1.0" encoding="UTF-8" standalone="no"?>
<!-- Created with Inkscape (http://www.inkscape.org/) -->

<svg
   xmlns:dc="http://purl.org/dc/elements/1.1/"
   xmlns:cc="http://creativecommons.org/ns#"
   xmlns:rdf="http://www.w3.org/1999/02/22-rdf-syntax-ns#"
   xmlns:svg="http://www.w3.org/2000/svg"
   xmlns="http://www.w3.org/2000/svg"
   xmlns:sodipodi="http://sodipodi.sourceforge.net/DTD/sodipodi-0.dtd"
   xmlns:inkscape="http://www.inkscape.org/namespaces/inkscape"
   width="744.09448819"
   height="1052.3622047"
   id="svg2"
   version="1.1"
   inkscape:version="0.48.1 r9760"
   sodipodi:docname="icons.svg">
  <defs
     id="defs4">
    <inkscape:perspective
       sodipodi:type="inkscape:persp3d"
       inkscape:vp_x="0 : 526.18109 : 1"
       inkscape:vp_y="0 : 1000 : 0"
       inkscape:vp_z="744.09448 : 526.18109 : 1"
       inkscape:persp3d-origin="372.04724 : 350.78739 : 1"
       id="perspective4200" />
  </defs>
  <sodipodi:namedview
     id="base"
     pagecolor="#ffffff"
     bordercolor="#666666"
     borderopacity="1.0"
     inkscape:pageopacity="0.0"
     inkscape:pageshadow="2"
     inkscape:zoom="4"
     inkscape:cx="122.95155"
     inkscape:cy="1009.4751"
     inkscape:document-units="px"
     inkscape:current-layer="layer1"
     showgrid="false"
     inkscape:window-width="1364"
     inkscape:window-height="766"
     inkscape:window-x="0"
     inkscape:window-y="0"
     inkscape:window-maximized="0" />
  <metadata
     id="metadata7">
    <rdf:RDF>
      <cc:Work
         rdf:about="">
        <dc:format>image/svg+xml</dc:format>
        <dc:type
           rdf:resource="http://purl.org/dc/dcmitype/StillImage" />
        <dc:title />
      </cc:Work>
    </rdf:RDF>
  </metadata>
  <g
     inkscape:label="Layer 1"
     inkscape:groupmode="layer"
     id="layer1">
    <path
       style="fill:#535a5f;fill-opacity:0.45490406;stroke:none"
       d="m 141.03125,9.5625 c -0.0405,0.03326 0.95097,5.354902 0.8125,5.46875 -0.16241,0.13349 -0.98774,-0.119794 -1.21875,-0.03125 -1.78094,0.683336 -3.57806,1.365811 -5.3125,2.03125 -0.34656,0.133007 -0.8335,0.885318 -1.125,1.125 -0.0283,0.02329 -0.42,0.222387 -0.4375,0.25 -0.63652,1.013136 -1.55065,2.230623 -2.25,3.34375 -0.43842,0.697885 -0.60168,1.711415 -1.21875,2.21875 -0.073,0.06012 -0.98094,2.233718 -1.1875,2.5625 -0.4436,0.706069 -0.23422,2.610085 -0.125,3.34375 0.0992,0.667101 -0.14597,1.392069 0,2.03125 0.79431,3.479102 0.84964,6.096499 3.03125,8.75 1.20079,1.460548 3.32249,1.990101 4.28125,3.15625 0.30583,0.372005 1.60906,0.506768 1.9375,0.90625 0.16529,0.200919 3.37148,0.9569 3.9375,1.3125 0.0792,0.04989 0.96952,0.06292 1.125,0.09375 0.86333,1.041577 1.75777,2.0592 2.53125,3 0.32729,0.39809 0.72135,0.540279 1.125,1.03125 0.0143,0.01701 0.0643,0.294467 0.15625,0.21875 0.0405,-0.03326 -0.91972,-5.354902 -0.78125,-5.46875 0.16241,-0.13349 0.98774,0.119794 1.21875,0.03125 1.78094,-0.683336 3.54681,-1.365811 5.28125,-2.03125 0.34656,-0.133007 0.86475,-0.885318 1.15625,-1.125 0.0283,-0.02329 0.38875,-0.222387 0.40625,-0.25 0.63652,-1.013136 1.5819,-2.230623 2.28125,-3.34375 0.43842,-0.697885 0.60168,-1.742665 1.21875,-2.25 0.073,-0.06012 0.98094,-2.202468 1.1875,-2.53125 0.4436,-0.706069 0.20297,-2.610085 0.0937,-3.34375 -0.0992,-0.667101 0.14597,-1.392069 0,-2.03125 -0.79431,-3.479102 -0.81839,-6.096499 -3,-8.75 -1.20079,-1.460548 -3.32249,-1.990101 -4.28125,-3.15625 -0.30583,-0.372005 -1.60906,-0.506768 -1.9375,-0.90625 -1.58446,-0.580369 -3.1647,-0.9568 -5.03125,-1.5625 0.69811,0.614738 0.97098,1.225729 1.1875,1.6875 -1.2908,-1.587089 -2.59772,-3.129699 -3.75,-4.53125 -0.32729,-0.39809 -0.72135,-0.540279 -1.125,-1.03125 -0.0143,-0.01701 -0.0955,-0.294467 -0.1875,-0.21875 z M 147,16.46875 c 0.65731,0.53414 1.53265,1.177365 1.65625,1.71875 -0.0339,0.06502 -0.0826,0.174855 -0.125,0.25 -0.0724,0.128373 -0.15782,0.254039 -0.25,0.40625 -0.0883,-0.27513 -0.3989,-0.742246 0.25,-0.40625 -0.487,-0.651781 -1.0087,-1.311449 -1.53125,-1.96875 z m 1,2.8125 c -0.6232,0.994482 -1.43394,2.222918 -1.8125,2.9375 0.38831,0.03786 1.00321,0.240593 1.375,0.40625 0.71894,0.320129 3.07254,0.757138 3.375,1.125 0.20001,0.243129 0.74597,0.485784 0.9375,0.71875 0.69137,0.840893 1.0749,1.810567 1.53125,3 0.16515,0.430378 0.0527,1.742694 -0.1875,2.125 -0.25368,0.403758 -0.4354,2.210086 -0.75,2.46875 -0.28375,0.233351 -0.52004,0.790184 -0.75,1.15625 -0.62875,1.00076 -1.94698,2.163409 -2.8125,2.875 -0.1985,0.163135 -0.86402,0.149484 -1.0625,0.3125 -0.0422,0.03487 -0.59615,0.285236 -0.625,0.25 -0.30497,-0.370978 0.87467,-6.05102 0.53125,-6.46875 -0.1312,-0.159453 -1.48143,1.289461 -1.78125,1.65625 -1.43177,1.751508 -2.54131,3.51934 -3.6875,5.34375 -0.10191,0.162199 -0.22145,0.386474 -0.34375,0.65625 -0.38831,-0.03786 -1.00321,-0.365593 -1.375,-0.53125 -0.71894,-0.320129 -3.04129,-0.788388 -3.34375,-1.15625 -0.20001,-0.243129 -0.74597,-0.454534 -0.9375,-0.6875 -0.69137,-0.840893 -1.0749,-1.810567 -1.53125,-3 -0.16515,-0.430378 -0.0527,-1.742694 0.1875,-2.125 0.25368,-0.403758 0.4354,-2.210086 0.75,-2.46875 0.28375,-0.233351 0.48879,-0.790184 0.71875,-1.15625 0.62875,-1.00076 1.97823,-2.163409 2.84375,-2.875 0.1985,-0.163135 0.83277,-0.149484 1.03125,-0.3125 0.0422,-0.03487 0.6274,-0.285236 0.65625,-0.25 0.30497,0.370978 -0.87467,6.05102 -0.53125,6.46875 0.1312,0.159453 1.48143,-1.289461 1.78125,-1.65625 1.43177,-1.751508 2.54131,-3.51934 3.6875,-5.34375 0.37681,-0.599756 0.93184,-2.260626 1.375,-2.625 0.27545,-0.226442 0.49149,-0.552926 0.75,-0.84375 z"
       id="path4237"
       inkscape:connector-curvature="0" />
    <path
       style="fill:#6d6d6d;fill-opacity:0.83529484;stroke:none"
       d="m 132.72143,61.096585 c -0.30397,0.02936 -0.6148,0.100197 -0.91867,0.19139 -1.23107,-0.100588 -2.22182,0.628963 -3.33019,1.033507 -1.30679,0.596334 -2.79109,1.078897 -3.63641,2.334961 -0.68609,1.048403 -1.94945,1.990969 -1.79907,3.368468 0.32213,1.119417 -0.70788,2.298382 -0.22967,3.330189 1.1563,-0.06962 2.32741,-0.322509 3.4833,-0.57417 0.85424,-0.500398 2.286,0.351293 2.83258,-0.344503 -0.67682,-1.100407 -0.38265,-2.576836 0.26794,-3.636414 0.94006,-1.598131 2.96069,-1.821024 4.63165,-1.684234 1.33086,0.105023 2.96913,0.479904 3.55985,1.837346 0.20305,0.611998 0.9391,1.553616 0.84212,1.913903 -0.87399,0.208347 -1.44948,0.218841 -1.83735,0.344502 -0.3329,0.01654 -1.3019,0.101323 -1.95218,0.344502 1.18702,1.046212 3.22729,1.27163 4.47854,1.837346 0.97593,0.351035 1.68394,1.41681 2.48807,1.799068 0.72346,-0.727908 1.50313,-1.311269 2.41151,-1.799068 1.46803,-0.954386 2.78959,-2.149984 4.13403,-3.253633 -1.10424,-0.08534 -2.54116,0.662494 -3.8278,0.535892 -0.84872,0.302697 -0.25412,-1.137263 -0.8804,-1.569399 -0.55355,-0.934342 -1.03136,-1.966549 -1.99045,-2.564629 -0.74453,-0.553686 -1.57436,-1.007257 -2.22013,-1.684234 -1.26025,-0.458054 -2.44514,-1.28948 -3.78953,-1.416288 -0.90397,-0.278023 -1.80581,-0.432595 -2.71774,-0.344502 z m -6.12448,13.167647 0.19139,0.07656 c -0.0795,-0.0609 -0.16573,-0.140579 -0.19139,-0.07656 z m 0,0 c -1.55249,1.414655 -3.15369,3.115421 -4.51681,4.47853 -0.23518,0.235182 -0.28413,0.475515 -0.57417,0.765561 -0.01,0.01029 -0.20753,0.09874 -0.15312,0.153112 0.0238,0.02397 3.40149,-0.962204 3.48331,-0.880395 0.0959,0.09595 0.005,0.661015 0.0765,0.803839 0.55054,1.101081 1.07153,2.181295 1.60768,3.253634 0.10718,0.214247 0.63161,0.478517 0.80384,0.650727 0.0168,0.01674 0.17256,0.258433 0.19139,0.267946 0.69064,0.345323 1.53786,0.88376 2.29668,1.263175 0.47574,0.237858 1.12829,0.286182 1.49284,0.650727 0.0432,0.04317 1.46011,0.462102 1.68424,0.574171 0.48132,0.240663 1.71745,0.0013 2.18185,-0.114834 0.42227,-0.105562 0.90004,-0.01934 1.30145,-0.153113 2.18486,-0.728287 3.86787,-0.920459 5.43548,-2.488072 0.86284,-0.862838 1.07186,-2.258481 1.76079,-2.94741 0.21977,-0.21976 0.22334,-1.06545 0.45934,-1.301453 0.11869,-0.118754 0.38125,-2.217051 0.57417,-2.602907 0.0295,-0.05892 -0.0222,-0.803839 0,-0.803839 0.0383,0 -0.44955,0.205637 -0.49762,0.229668 -0.4091,0.204558 -0.91731,0.152659 -1.378,0.306225 -0.58705,0.195682 -2.32902,0.05446 -2.75602,0.267946 -0.0326,0.01633 -0.57417,0.178697 -0.57417,0.114834 l 0,0.535893 c 0,0.251797 -0.18485,0.669485 -0.26795,0.918673 -0.16056,0.48185 -0.31857,2.002794 -0.53589,2.220126 -0.14363,0.143703 -0.24515,0.513104 -0.38278,0.650727 -0.49679,0.496789 -1.10197,0.818944 -1.83735,1.186619 -0.2661,0.133055 -1.11739,0.130309 -1.37801,0 -0.27525,-0.137637 -1.46009,-0.158644 -1.64596,-0.344502 -0.16767,-0.167632 -0.51602,-0.25802 -0.76556,-0.382781 -0.68221,-0.341116 -1.51741,-1.134627 -2.02873,-1.645955 -0.11722,-0.117272 -0.15079,-0.533464 -0.26795,-0.650727 -0.025,-0.02495 -0.21221,-0.362047 -0.19139,-0.38278 0.21916,-0.219141 3.92553,0.170217 4.17231,-0.07656 0.0942,-0.09426 -0.89396,-0.863917 -1.14834,-1.033507 -1.21476,-0.809843 -2.43101,-1.406885 -3.6747,-2.028736 -0.40885,-0.204432 -1.49898,-0.465474 -1.76079,-0.727283 -0.21696,-0.216971 -0.56858,-0.338919 -0.80383,-0.57417 l -0.19139,-0.07656 c 0.0306,0.02342 0.0467,0.05867 0.0766,0.07656 -0.17324,0.0823 -0.43429,0.26273 -0.26794,-0.153112 z"
       id="path4363"
       inkscape:connector-curvature="0"
       inkscape:export-filename="/home/substack/projects/testling/static/images/refresh.png"
       inkscape:export-xdpi="100"
       inkscape:export-ydpi="100" />
    <path
       sodipodi:nodetypes="ccccccccccccscccccsscccccccccccssccccccccsccccccccscc"
       inkscape:connector-curvature="0"
       id="path4232"
       d="m 186.81758,64.902991 c -0.0194,0.02365 -0.24303,0.136123 -0.24303,0.198909 -2e-5,0.0795 -0.17675,0.191179 -0.17678,0.265165 0,0.297989 -1.62076,1.66489 -1.94457,1.988703 -0.14503,0.145027 -0.32722,0.283091 -0.46401,0.41988 -0.0208,0.02083 -0.009,0.0604 0,0.08839 0.0321,0.09641 0.78337,0.80618 0.88389,0.839689 0.15498,0.05166 0.96232,0.962323 1.12695,1.126952 0.0276,0.02758 0.49219,0.568471 0.48613,0.574524 -0.21571,0.215711 -0.63144,0.701024 -0.7292,0.994369 -0.0469,0.140508 -1.23089,1.098373 -1.43628,1.303763 -0.0585,0.05856 -0.55242,0.284716 -0.55239,0.41988 1e-5,0.258006 0.81938,0.732768 0.95018,0.994369 0.20048,0.400967 0.65774,0.674672 0.86178,1.082758 0.053,0.106066 0.21213,0.159099 0.26517,0.265165 0.0893,0.178537 0.37933,0.342501 0.44194,0.53033 0.0157,0.04732 0.25655,0.433329 0.26516,0.441941 0.0303,0.03034 0.0527,-0.06971 0.0663,-0.11045 0.0164,-0.04907 0.11727,-0.11727 0.15468,-0.154679 0.13995,-0.139949 0.2799,-0.279896 0.41985,-0.419845 0.44509,-0.445098 1.1885,-1.290324 1.74567,-1.568893 0.23674,-0.118377 0.39035,-0.530358 0.61871,-0.53033 0.142,10e-7 0.38615,0.446651 0.44195,0.53033 0.25624,0.384369 1.33766,1.377911 1.72357,1.635184 0.0961,0.06405 0.50623,0.508212 0.59662,0.508233 0.0345,-2.1e-5 0.0192,-0.05767 0.0221,-0.06625 0.0685,-0.205415 0.23469,-0.403094 0.33146,-0.596622 0.24854,-0.497073 0.8478,-0.897585 1.30369,-1.171181 0.3683,-0.220981 0.60359,-0.662706 0.97227,-0.883883 0.0659,-0.03958 0.59373,-0.37855 0.68498,-0.552463 -0.0179,-0.150504 -0.28617,-0.186727 -0.39775,-0.298311 -0.20646,-0.206461 -0.38054,-0.327054 -0.61872,-0.497184 -0.24621,-0.175864 -0.4555,-0.406784 -0.70711,-0.574524 -0.20219,-0.134796 -0.32223,-0.405476 -0.53033,-0.53033 -0.16938,-0.101626 -0.293,-0.290176 -0.46403,-0.375651 -0.017,-0.0085 -0.29002,-0.196116 -0.28727,-0.198874 0.0984,-0.09842 0.41921,-0.27589 0.57453,-0.353553 0.17025,-0.08512 0.27523,-0.314406 0.4419,-0.397783 0.17602,-0.08805 0.40348,-0.409133 0.48614,-0.574524 0.066,-0.132066 0.26947,-0.225345 0.37562,-0.331492 0.1854,-0.185402 0.32808,-0.416475 0.50823,-0.596621 0.23132,-0.231325 0.41179,-0.455915 0.64085,-0.684974 0.0173,-0.0173 0.11049,-0.08843 0.11048,-0.110486 3e-5,-0.05928 -1.20457,-1.113354 -1.37001,-1.237437 -0.37047,-0.27785 -0.88047,-0.853287 -1.30373,-0.994369 -0.0976,-0.03252 -0.30771,-0.219316 -0.37565,-0.287262 -0.0397,-0.03967 -0.14463,-0.133581 -0.22098,-0.176776 -0.11463,0.04006 -0.62202,0.554978 -0.72921,0.640815 -0.0749,0.05067 -1.53759,1.672689 -1.90702,2.004169 -0.38019,-0.452385 -0.85902,-0.991299 -1.62852,-1.562192 -0.12897,-0.07738 -0.24602,-0.246024 -0.35355,-0.353553 -0.3187,-0.3187 -0.66099,-0.562999 -1.06066,-0.662913 z"
       style="fill:#864b4c;fill-opacity:0.53070176;stroke:none"
       inkscape:export-filename="/home/substack/projects/testling/static/images/fail.png"
       inkscape:export-xdpi="100"
       inkscape:export-ydpi="100" />
    <path
       sodipodi:nodetypes="cssscsssscccscccccccssssccccc"
       inkscape:connector-curvature="0"
       id="path4224"
       d="m 162.14644,70.484421 c 0.0106,0.0437 -0.10334,-0.31934 -0.10334,-0.723293 0,-0.302888 -0.12418,-1.322399 0.0516,-1.49825 0.29975,-0.29974 2.17607,-0.206655 2.84152,-0.206655 0.17752,0 0.84747,0.185794 0.98161,0.05166 0.25372,-0.253712 -0.4583,-3.462957 0.10592,-4.027177 0.13123,-0.131227 1.00211,0.03653 1.15281,0.03653 0.35232,0 1.75122,-0.213223 1.99608,-0.09079 0.18455,0.09227 0.46784,0.109055 0.5683,0.309983 0.072,0.144036 0.11732,0.337972 0.20666,0.516638 0.10451,0.20902 -0.0699,1.051488 -0.15499,1.136602 -9e-4,0.0013 -0.0298,1.823802 0.10333,2.066551 0.16623,0.275854 0.65184,0.02602 1.04689,0.109596 0.38339,0.08112 2.39844,-0.125734 2.5179,-0.0062 0.3807,0.68002 0.098,1.675205 0.155,2.428197 0.13321,0.266421 0.21204,1.288812 -0.0642,1.565047 -0.72883,0.06752 -1.74064,0.121321 -2.18393,0.09705 -0.44838,-0.08309 -1.33131,-0.05321 -1.42,-0.0089 -0.28578,0.572169 -0.0987,1.438424 0,2.066552 0.0703,0.140575 -0.18438,1.889276 -0.25832,1.963224 -0.0924,0.09236 -0.41877,0.108791 -0.51664,0.206655 -0.11505,0.115055 -1.20575,-0.120412 -1.44659,0 -0.23858,0.119292 -0.64855,0.05166 -0.92995,0.05166 -0.32329,0 -0.61457,-0.09794 -0.77495,-0.258319 -0.16498,-0.164985 -0.38649,-2.585181 -0.20665,-2.944836 0.12801,-0.256031 0.0842,-0.89746 -0.0517,-1.033275 -0.18834,-0.188347 -3.13542,0.22272 -3.35815,0 -0.0788,-0.48127 -0.1904,-0.718418 -0.19373,-0.981612 0,-0.12178 -0.0646,-0.826623 -0.0646,-0.826623 z"
       style="fill:#7ca244;fill-opacity:0.5964912;stroke:none"
       inkscape:export-filename="/home/substack/projects/testling/static/images/ok.png"
       inkscape:export-xdpi="100"
       inkscape:export-ydpi="100" />
    <path
       style="fill:#3c9682;fill-opacity:0.45374451;stroke:none"
       d="m 24.490197,21.105393 c -5.506806,-0.6297 -7.71302,0.225506 -2.78125,4.40625 4.84776,5.089668 8.545153,11.292396 14.59375,15.125 6.831886,-5.581456 13.669015,-11.657137 18.09375,-19.34375 -9.979122,-0.30982 -19.929011,0.191057 -29.90625,-0.1875 z"
       id="path3885"
       inkscape:connector-curvature="0"
       inkscape:export-filename="/home/substack/projects/testling/static/images/down.png"
       inkscape:export-xdpi="100"
       inkscape:export-ydpi="100" />
    <path
       style="fill:#3c9682;fill-opacity:0.45374451;stroke:none"
       d="m 89.302697,21.511643 c -5.544111,6.266054 -11.940737,11.770943 -17.15625,18.4375 11.253289,-0.391618 22.867948,0.462022 33.906253,-0.375 3.68363,-3.439963 -3.11843,-6.689536 -4.96875,-9.09375 -3.028517,-3.844225 -6.799524,-6.773502 -10.437503,-10.09375 l -0.766758,0.641937 -0.576992,0.483063 z"
       id="path3887"
       inkscape:connector-curvature="0"
       inkscape:export-filename="/home/substack/projects/testling/static/images/up.png"
       inkscape:export-xdpi="100"
       inkscape:export-ydpi="100" />
    <path
       style="fill:#5bd29b;stroke:#000000;stroke-width:3;stroke-linecap:round;stroke-linejoin:round;stroke-miterlimit:4;stroke-opacity:1;stroke-dasharray:none;fill-opacity:1"
       d="m 19.13107,19.613889 c 1.115944,1.445637 2.450367,2.506121 3.290587,3.810974 1.821554,1.363295 2.594908,3.375007 4.017558,5.098238 1.133644,0.981516 2.516223,2.003176 3.292107,3.279947 0.865312,0.710824 2.435983,2.36284 3.303231,2.865395 1.033879,-0.705153 1.799583,-1.601771 2.566789,-2.239281 1.183482,-0.724175 2.179479,-1.684396 3.045418,-2.774677 1.219045,-1.384888 2.381843,-2.221199 3.565895,-3.639142 0.787412,-0.823642 2.25164,-2.069955 2.860909,-3.019884 1.187911,-1.248312 1.861864,-1.921503 2.769885,-3.420267 -1.452831,-0.144901 -3.164416,0.159272 -4.621598,0.122702 -2.169756,0.109871 -4.26768,-0.285155 -6.414742,0.108413 -2.472762,-0.300069 -5.839367,0.04612 -7.932114,-0.103115 -1.818196,0.08802 -3.639207,-0.06344 -5.442031,-0.261252 -1.519795,0.07987 -2.542411,0.20023 -4.301894,0.171949 z"
       id="path3002"
       inkscape:connector-curvature="0"
       sodipodi:nodetypes="ccccccccccccccc"
       inkscape:export-filename="/home/substack/projects/testling/static/images/down.png"
       inkscape:export-xdpi="100"
       inkscape:export-ydpi="100" />
    <path
       style="fill:#5bd29b;stroke:#000000;stroke-width:3;stroke-linecap:round;stroke-linejoin:round;stroke-miterlimit:4;stroke-opacity:1;stroke-dasharray:none;fill-opacity:1"
       d="m 87.412925,19.510777 c 2.126253,2.092541 4.244849,3.411973 6.908459,6.320067 1.4242,2.348315 4.587091,4.435454 7.195236,7.316826 1.83653,1.985679 -1.33151,0.932147 -2.896658,0.983841 -2.562006,0.618208 -9.234795,0.111755 -11.459054,0.217193 -5.600851,0.02138 -8.23271,-0.0054 -13.833545,0.02254 1.572721,-1.766183 2.501362,-3.154441 4.475056,-4.747767 1.527523,-1.442652 2.778504,-3.330883 4.823125,-4.949254 1.555995,-1.048506 2.528522,-3.344309 4.787381,-5.163444 z"
       id="path3043"
       inkscape:connector-curvature="0"
       sodipodi:nodetypes="ccccccccc"
       inkscape:export-filename="/home/substack/projects/testling/static/images/up.png"
       inkscape:export-xdpi="100"
       inkscape:export-ydpi="100" />
    <path
       inkscape:export-ydpi="100"
       inkscape:export-xdpi="100"
       inkscape:export-filename="/home/substack/projects/testling/static/images/down_fail.png"
       inkscape:connector-curvature="0"
       id="path3912"
       d="m 24.490197,60.34982 c -5.506806,-0.6297 -7.71302,0.225506 -2.78125,4.40625 4.84776,5.089668 8.545153,11.292396 14.59375,15.125 6.831886,-5.581456 13.669015,-11.657137 18.09375,-19.34375 -9.979122,-0.30982 -19.929011,0.191057 -29.90625,-0.1875 z"
       style="fill:#96433c;fill-opacity:0.4537445;stroke:none" />
    <path
       inkscape:export-ydpi="100"
       inkscape:export-xdpi="100"
       inkscape:export-filename="/home/substack/projects/testling/static/images/up_fail.png"
       inkscape:connector-curvature="0"
       id="path3914"
       d="m 89.302697,60.75607 c -5.544111,6.266054 -11.940737,11.770943 -17.15625,18.4375 11.253289,-0.391618 22.867948,0.462022 33.906253,-0.375 3.68363,-3.439963 -3.11843,-6.689536 -4.96875,-9.09375 -3.028517,-3.844225 -6.799524,-6.773502 -10.437503,-10.09375 l -0.766758,0.641937 -0.576992,0.483063 z"
       style="fill:#96433c;fill-opacity:0.4537445;stroke:none" />
    <path
       inkscape:export-ydpi="100"
       inkscape:export-xdpi="100"
       inkscape:export-filename="/home/substack/projects/testling/static/images/down_fail.png"
       sodipodi:nodetypes="ccccccccccccccc"
       inkscape:connector-curvature="0"
       id="path3916"
       d="m 19.13107,58.858316 c 1.115944,1.445637 2.450367,2.506121 3.290587,3.810974 1.821554,1.363295 2.594908,3.375007 4.017558,5.098238 1.133644,0.981516 2.516223,2.003176 3.292107,3.279947 0.865312,0.710824 2.435983,2.36284 3.303231,2.865395 1.033879,-0.705153 1.799583,-1.601771 2.566789,-2.239281 1.183482,-0.724175 2.179479,-1.684396 3.045418,-2.774677 1.219045,-1.384888 2.381843,-2.221199 3.565895,-3.639142 0.787412,-0.823642 2.25164,-2.069955 2.860909,-3.019884 1.187911,-1.248312 1.861864,-1.921503 2.769885,-3.420267 -1.452831,-0.144901 -3.164416,0.159272 -4.621598,0.122702 -2.169756,0.109871 -4.26768,-0.285155 -6.414742,0.108413 -2.472762,-0.300069 -5.839367,0.04612 -7.932114,-0.103115 -1.818196,0.08802 -3.639207,-0.06344 -5.442031,-0.261252 -1.519795,0.07987 -2.542411,0.20023 -4.301894,0.171949 z"
       style="fill:#ff3828;fill-opacity:1;stroke:#000000;stroke-width:3;stroke-linecap:round;stroke-linejoin:round;stroke-miterlimit:4;stroke-opacity:1;stroke-dasharray:none" />
    <path
       inkscape:export-ydpi="100"
       inkscape:export-xdpi="100"
       inkscape:export-filename="/home/substack/projects/testling/static/images/up_fail.png"
       sodipodi:nodetypes="ccccccccc"
       inkscape:connector-curvature="0"
       id="path3918"
       d="m 87.412925,58.755204 c 2.126253,2.092541 4.244849,3.411973 6.908459,6.320067 1.4242,2.348315 4.587091,4.435454 7.195236,7.316826 1.83653,1.985679 -1.33151,0.932147 -2.896658,0.983841 -2.562006,0.618208 -9.234795,0.111755 -11.459054,0.217193 -5.600851,0.02138 -8.23271,-0.0054 -13.833545,0.02254 1.572721,-1.766183 2.501362,-3.154441 4.475056,-4.747767 1.527523,-1.442652 2.778504,-3.330883 4.823125,-4.949254 1.555995,-1.048506 2.528522,-3.344309 4.787381,-5.163444 z"
       style="fill:#ff3828;fill-opacity:1;stroke:#000000;stroke-width:3;stroke-linecap:round;stroke-linejoin:round;stroke-miterlimit:4;stroke-opacity:1;stroke-dasharray:none" />
    <path
       style="fill:#a3ff34;fill-opacity:1;stroke:#000000;stroke-width:1;stroke-linecap:butt;stroke-linejoin:miter;stroke-miterlimit:4;stroke-opacity:1;stroke-dasharray:none"
       d="m 160.55545,69.070207 c 0.0106,0.0437 -0.10334,-0.31934 -0.10334,-0.723293 0,-0.302888 -0.12418,-1.322399 0.0516,-1.49825 0.29975,-0.29974 2.17607,-0.206655 2.84152,-0.206655 0.17752,0 0.84747,0.185794 0.98161,0.05166 0.25372,-0.253712 -0.4583,-3.462957 0.10592,-4.027177 0.13123,-0.131227 1.00211,0.03653 1.15281,0.03653 0.35232,0 1.75122,-0.213223 1.99608,-0.09079 0.18455,0.09227 0.46784,0.109055 0.5683,0.309983 0.072,0.144036 0.11732,0.337972 0.20666,0.516638 0.10451,0.20902 -0.0699,1.051488 -0.15499,1.136602 -9e-4,0.0013 -0.0298,1.823802 0.10333,2.066551 0.16623,0.275854 0.65184,0.02602 1.04689,0.109596 0.38339,0.08112 2.39844,-0.125734 2.5179,-0.0062 0.3807,0.68002 0.098,1.675205 0.155,2.428197 0.13321,0.266421 0.21204,1.288812 -0.0642,1.565047 -0.72883,0.06752 -1.74064,0.121321 -2.18393,0.09705 -0.44838,-0.08309 -1.33131,-0.05321 -1.42,-0.0089 -0.28578,0.572169 -0.0987,1.438424 0,2.066552 0.0703,0.140575 -0.18438,1.889276 -0.25832,1.963224 -0.0924,0.09236 -0.41877,0.108791 -0.51664,0.206655 -0.11505,0.115055 -1.20575,-0.120412 -1.44659,0 -0.23858,0.119292 -0.64855,0.05166 -0.92995,0.05166 -0.32329,0 -0.61457,-0.09794 -0.77495,-0.258319 -0.16498,-0.164985 -0.38649,-2.585181 -0.20665,-2.944836 0.12801,-0.256031 0.0842,-0.89746 -0.0517,-1.033275 -0.18834,-0.188347 -3.13542,0.22272 -3.35815,0 -0.0788,-0.48127 -0.1904,-0.718418 -0.19373,-0.981612 0,-0.12178 -0.0646,-0.826623 -0.0646,-0.826623 z"
       id="path4165"
       inkscape:connector-curvature="0"
       sodipodi:nodetypes="cssscsssscccscccccccssssccccc"
       inkscape:export-filename="/home/substack/projects/testling/static/images/ok.png"
       inkscape:export-xdpi="100"
       inkscape:export-ydpi="100" />
    <path
       style="fill:#7ca244;fill-opacity:0.5964912;stroke:none"
       d="m 162.14644,70.484421 c 0.0106,0.0437 -0.10334,-0.31934 -0.10334,-0.723293 0,-0.302888 -0.12418,-1.322399 0.0516,-1.49825 0.29975,-0.29974 2.17607,-0.206655 2.84152,-0.206655 0.17752,0 0.84747,0.185794 0.98161,0.05166 0.25372,-0.253712 -0.4583,-3.462957 0.10592,-4.027177 0.13123,-0.131227 1.00211,0.03653 1.15281,0.03653 0.35232,0 1.75122,-0.213223 1.99608,-0.09079 0.18455,0.09227 0.46784,0.109055 0.5683,0.309983 0.072,0.144036 0.11732,0.337972 0.20666,0.516638 0.10451,0.20902 -0.0699,1.051488 -0.15499,1.136602 -9e-4,0.0013 -0.0298,1.823802 0.10333,2.066551 0.16623,0.275854 0.65184,0.02602 1.04689,0.109596 0.38339,0.08112 2.39844,-0.125734 2.5179,-0.0062 0.3807,0.68002 0.098,1.675205 0.155,2.428197 0.13321,0.266421 0.21204,1.288812 -0.0642,1.565047 -0.72883,0.06752 -1.74064,0.121321 -2.18393,0.09705 -0.44838,-0.08309 -1.33131,-0.05321 -1.42,-0.0089 -0.28578,0.572169 -0.0987,1.438424 0,2.066552 0.0703,0.140575 -0.18438,1.889276 -0.25832,1.963224 -0.0924,0.09236 -0.41877,0.108791 -0.51664,0.206655 -0.11505,0.115055 -1.20575,-0.120412 -1.44659,0 -0.23858,0.119292 -0.64855,0.05166 -0.92995,0.05166 -0.32329,0 -0.61457,-0.09794 -0.77495,-0.258319 -0.16498,-0.164985 -0.38649,-2.585181 -0.20665,-2.944836 0.12801,-0.256031 0.0842,-0.89746 -0.0517,-1.033275 -0.18834,-0.188347 -3.13542,0.22272 -3.35815,0 -0.0788,-0.48127 -0.1904,-0.718418 -0.19373,-0.981612 0,-0.12178 -0.0646,-0.826623 -0.0646,-0.826623 z"
       id="path4226"
       inkscape:connector-curvature="0"
       sodipodi:nodetypes="cssscsssscccscccccccssssccccc"
       inkscape:export-filename="/home/substack/projects/testling/static/images/ok.png"
       inkscape:export-xdpi="100"
       inkscape:export-ydpi="100" />
    <path
       sodipodi:nodetypes="cssscsssscccscccccccssssccccc"
       inkscape:connector-curvature="0"
       id="path4228"
       d="m 160.55545,69.070207 c 0.0106,0.0437 -0.10334,-0.31934 -0.10334,-0.723293 0,-0.302888 -0.12418,-1.322399 0.0516,-1.49825 0.29975,-0.29974 2.17607,-0.206655 2.84152,-0.206655 0.17752,0 0.84747,0.185794 0.98161,0.05166 0.25372,-0.253712 -0.4583,-3.462957 0.10592,-4.027177 0.13123,-0.131227 1.00211,0.03653 1.15281,0.03653 0.35232,0 1.75122,-0.213223 1.99608,-0.09079 0.18455,0.09227 0.46784,0.109055 0.5683,0.309983 0.072,0.144036 0.11732,0.337972 0.20666,0.516638 0.10451,0.20902 -0.0699,1.051488 -0.15499,1.136602 -9e-4,0.0013 -0.0298,1.823802 0.10333,2.066551 0.16623,0.275854 0.65184,0.02602 1.04689,0.109596 0.38339,0.08112 2.39844,-0.125734 2.5179,-0.0062 0.3807,0.68002 0.098,1.675205 0.155,2.428197 0.13321,0.266421 0.21204,1.288812 -0.0642,1.565047 -0.72883,0.06752 -1.74064,0.121321 -2.18393,0.09705 -0.44838,-0.08309 -1.33131,-0.05321 -1.42,-0.0089 -0.28578,0.572169 -0.0987,1.438424 0,2.066552 0.0703,0.140575 -0.18438,1.889276 -0.25832,1.963224 -0.0924,0.09236 -0.41877,0.108791 -0.51664,0.206655 -0.11505,0.115055 -1.20575,-0.120412 -1.44659,0 -0.23858,0.119292 -0.64855,0.05166 -0.92995,0.05166 -0.32329,0 -0.61457,-0.09794 -0.77495,-0.258319 -0.16498,-0.164985 -0.38649,-2.585181 -0.20665,-2.944836 0.12801,-0.256031 0.0842,-0.89746 -0.0517,-1.033275 -0.18834,-0.188347 -3.13542,0.22272 -3.35815,0 -0.0788,-0.48127 -0.1904,-0.718418 -0.19373,-0.981612 0,-0.12178 -0.0646,-0.826623 -0.0646,-0.826623 z"
       style="fill:#a3ff34;fill-opacity:1;stroke:#000000;stroke-width:1;stroke-linecap:butt;stroke-linejoin:miter;stroke-miterlimit:4;stroke-opacity:1;stroke-dasharray:none"
       inkscape:export-filename="/home/substack/projects/testling/static/images/ok.png"
       inkscape:export-xdpi="100"
       inkscape:export-ydpi="100" />
    <path
       style="fill:#fb181e;fill-opacity:1;stroke:#000000;stroke-width:1px;stroke-linecap:butt;stroke-linejoin:miter;stroke-opacity:1"
       d="m 185.31498,63.135224 c -0.0194,0.02365 -0.24303,0.136123 -0.24303,0.198909 -2e-5,0.0795 -0.17675,0.191179 -0.17678,0.265165 0,0.297989 -1.62076,1.66489 -1.94457,1.988703 -0.14503,0.145027 -0.32722,0.283091 -0.46401,0.41988 -0.0208,0.02083 -0.009,0.0604 0,0.08839 0.0321,0.09641 0.78337,0.80618 0.88389,0.839689 0.15498,0.05166 0.96232,0.962323 1.12695,1.126952 0.0276,0.02758 0.49219,0.568471 0.48613,0.574524 -0.21571,0.215711 -0.63144,0.701024 -0.7292,0.994369 -0.0469,0.140508 -1.23089,1.098373 -1.43628,1.303763 -0.0585,0.05856 -0.55242,0.284716 -0.55239,0.41988 1e-5,0.258006 0.81938,0.732768 0.95018,0.994369 0.20048,0.400967 0.65774,0.674672 0.86178,1.082758 0.053,0.106066 0.21213,0.159099 0.26517,0.265165 0.0893,0.178537 0.37933,0.342501 0.44194,0.53033 0.0157,0.04732 0.25655,0.433329 0.26516,0.441941 0.0303,0.03034 0.0527,-0.06971 0.0663,-0.11045 0.0164,-0.04907 0.11727,-0.11727 0.15468,-0.154679 0.13995,-0.139949 0.2799,-0.279896 0.41985,-0.419845 0.44509,-0.445098 1.1885,-1.290324 1.74567,-1.568893 0.23674,-0.118377 0.39035,-0.530358 0.61871,-0.53033 0.142,10e-7 0.38615,0.446651 0.44195,0.53033 0.25624,0.384369 1.33766,1.377911 1.72357,1.635184 0.0961,0.06405 0.50623,0.508212 0.59662,0.508233 0.0345,-2.1e-5 0.0192,-0.05767 0.0221,-0.06625 0.0685,-0.205415 0.23469,-0.403094 0.33146,-0.596622 0.24854,-0.497073 0.8478,-0.897585 1.30369,-1.171181 0.3683,-0.220981 0.60359,-0.662706 0.97227,-0.883883 0.0659,-0.03958 0.59373,-0.37855 0.68498,-0.552463 -0.0179,-0.150504 -0.28617,-0.186727 -0.39775,-0.298311 -0.20646,-0.206461 -0.38054,-0.327054 -0.61872,-0.497184 -0.24621,-0.175864 -0.4555,-0.406784 -0.70711,-0.574524 -0.20219,-0.134796 -0.32223,-0.405476 -0.53033,-0.53033 -0.16938,-0.101626 -0.293,-0.290176 -0.46403,-0.375651 -0.017,-0.0085 -0.29002,-0.196116 -0.28727,-0.198874 0.0984,-0.09842 0.41921,-0.27589 0.57453,-0.353553 0.17025,-0.08512 0.27523,-0.314406 0.4419,-0.397783 0.17602,-0.08805 0.40348,-0.409133 0.48614,-0.574524 0.066,-0.132066 0.26947,-0.225345 0.37562,-0.331492 0.1854,-0.185402 0.32808,-0.416475 0.50823,-0.596621 0.23132,-0.231325 0.41179,-0.455915 0.64085,-0.684974 0.0173,-0.0173 0.11049,-0.08843 0.11048,-0.110486 3e-5,-0.05928 -1.20457,-1.113354 -1.37001,-1.237437 -0.37047,-0.27785 -0.88047,-0.853287 -1.30373,-0.994369 -0.0976,-0.03252 -0.30771,-0.219316 -0.37565,-0.287262 -0.0397,-0.03967 -0.14463,-0.133581 -0.22098,-0.176776 -0.11463,0.04006 -0.62202,0.554978 -0.72921,0.640815 -0.0749,0.05067 -1.53759,1.672689 -1.90702,2.004169 -0.38019,-0.452385 -0.85902,-0.991299 -1.62852,-1.562192 -0.12897,-0.07738 -0.24602,-0.246024 -0.35355,-0.353553 -0.3187,-0.3187 -0.66099,-0.562999 -1.06066,-0.662913 z"
       id="path4230"
       inkscape:connector-curvature="0"
       sodipodi:nodetypes="ccccccccccccscccccsscccccccccccssccccccccsccccccccscc"
       inkscape:export-filename="/home/substack/projects/testling/static/images/fail.png"
       inkscape:export-xdpi="100"
       inkscape:export-ydpi="100" />
    <path
       style="fill:#5bb8d2;fill-opacity:1;stroke:#000000;stroke-width:1.22489738;stroke-linecap:round;stroke-linejoin:round;stroke-miterlimit:4;stroke-opacity:1;stroke-dasharray:none"
       d="m 137.28327,68.683428 c 0.97594,0.351034 1.65601,1.40357 2.46014,1.785829 0.72346,-0.727909 1.52223,-1.28602 2.43062,-1.773818 1.46802,-0.954386 2.76949,-2.141258 4.11394,-3.244907 -1.10425,-0.08534 -2.54026,0.638535 -3.8269,0.511933 -0.84872,0.302697 -0.22363,-1.144369 -0.84991,-1.576505 -0.55355,-0.934342 -1.02911,-1.968246 -1.9882,-2.566327 -0.74453,-0.553685 -1.57499,-1.004273 -2.22075,-1.681251 -1.26025,-0.458054 -2.44316,-1.264498 -3.78755,-1.391306 -1.20529,-0.370698 -2.42355,-0.542843 -3.63904,-0.178078 -1.23107,-0.100588 -2.24569,0.658117 -3.35407,1.062661 -1.30679,0.596334 -2.78251,1.056544 -3.62784,2.312608 -0.68609,1.048403 -1.94376,2.002432 -1.79338,3.379931 0.32214,1.119418 -0.72387,2.29411 -0.24565,3.325917 1.1563,-0.06962 2.33248,-0.313322 3.48837,-0.564983 0.85424,-0.500398 2.27839,0.359404 2.82497,-0.336392 -0.67682,-1.100407 -0.36434,-2.614906 0.28626,-3.674483 0.94006,-1.598131 2.96551,-1.788997 4.63647,-1.652207 1.33086,0.105023 2.94816,0.449359 3.53888,1.806801 0.20305,0.611998 0.9595,1.581983 0.86253,1.942269 -0.87399,0.208348 -1.45463,0.217788 -1.84249,0.343449 -0.33291,0.01654 -1.29143,0.08893 -1.9417,0.332103 1.18701,1.046212 3.22405,1.271039 4.4753,1.836756 z"
       id="path4318"
       inkscape:connector-curvature="0"
       sodipodi:nodetypes="ccccccccccccccccccccccc"
       inkscape:export-filename="/home/substack/projects/testling/static/images/refresh.png"
       inkscape:export-xdpi="100"
       inkscape:export-ydpi="100" />
    <path
       style="fill:#5bb8d2;fill-opacity:1;stroke:#000000;stroke-width:1.22489738;stroke-linecap:round;stroke-linejoin:round;stroke-miterlimit:4;stroke-opacity:1;stroke-dasharray:none"
       d="m 124.75657,71.572488 c -1.55248,1.414656 -3.15055,3.085173 -4.51368,4.448283 -0.23518,0.235182 -0.2987,0.494944 -0.58875,0.78499 -0.01,0.01029 -0.18526,0.07647 -0.13085,0.130838 0.0238,0.02397 3.38523,-0.932217 3.46704,-0.850407 0.0959,0.09595 -0.006,0.642165 0.0654,0.78499 0.55055,1.101081 1.09925,2.198458 1.6354,3.270797 0.10718,0.214246 0.61277,0.48195 0.785,0.65416 0.0168,0.01674 0.1773,0.25215 0.19613,0.261662 0.69065,0.345323 1.53073,0.863488 2.28955,1.242904 0.47574,0.237857 1.14003,0.289613 1.50458,0.654158 0.0432,0.04317 1.47668,0.476674 1.70081,0.588742 0.48132,0.240663 1.69433,-0.01469 2.15872,-0.130837 0.42227,-0.105562 0.9069,0.0029 1.30831,-0.130836 2.18487,-0.728287 3.86192,-0.918192 5.42953,-2.485806 0.86285,-0.862837 1.0773,-2.254788 1.76623,-2.943717 0.21977,-0.21976 0.22192,-1.072314 0.45792,-1.308318 0.11869,-0.118754 0.39582,-2.230782 0.58874,-2.616638 0.0295,-0.05892 -0.0222,-0.78499 0,-0.78499 0.0383,0 -0.47527,0.172217 -0.52333,0.196248 -0.40911,0.204558 -0.91303,0.173514 -1.37373,0.32708 -0.58704,0.195682 -2.32047,0.04818 -2.74746,0.261662 -0.0326,0.01633 -0.58875,0.1947 -0.58875,0.130838 0,-0.03397 0,0.315283 0,0.523329 0,0.251797 -0.17857,0.666633 -0.26166,0.915821 -0.16056,0.48185 -0.30601,2.006809 -0.52333,2.224142 -0.14363,0.143702 -0.25488,0.516536 -0.39251,0.65416 -0.49678,0.496789 -1.09627,0.809811 -1.83165,1.177486 -0.26609,0.133055 -1.1131,0.130308 -1.37372,0 -0.27524,-0.137637 -1.44953,-0.141221 -1.6354,-0.327079 -0.16767,-0.167632 -0.53546,-0.267736 -0.785,-0.392497 -0.68221,-0.341116 -1.51655,-1.124068 -2.02787,-1.635397 -0.11723,-0.117271 -0.14452,-0.536895 -0.26168,-0.654159 -0.025,-0.02495 -0.21697,-0.371762 -0.19614,-0.392496 0.21916,-0.21914 3.93984,0.181365 4.18662,-0.06541 0.0942,-0.09426 -0.9231,-0.877066 -1.17749,-1.046656 -1.21476,-0.809843 -2.4196,-1.406043 -3.66329,-2.027894 -0.40886,-0.204432 -1.50442,-0.457767 -1.76623,-0.719575 -0.21696,-0.216971 -0.54973,-0.353491 -0.78498,-0.588742 -0.0773,-0.07716 -0.61429,0.42362 -0.39251,-0.130837 0.0513,-0.128047 0.295,0.228349 0.39251,0.130837"
       id="path4339"
       inkscape:connector-curvature="0"
       inkscape:export-filename="/home/substack/projects/testling/static/images/refresh.png"
       inkscape:export-xdpi="100"
       inkscape:export-ydpi="100" />
    <path
       sodipodi:nodetypes="csccsssscscssscssscsscssssscccscsssscscscscsccsssscscscscscsssssssssccsssccc"
       inkscape:connector-curvature="0"
       id="path4420"
       d="m 29.235282,128.87258 c -0.663403,-1.17318 -0.25,-5.53753 -0.25,-8.5 0,-0.64673 -0.237312,-2.38769 0.125,-2.75 -0.263167,-0.69692 0.008,-1.53889 0.125,-2.25 0.576058,-1.15212 0.722187,-1.97219 1.5,-2.75 1.109729,-1.10973 3.985941,-1.36094 4.75,-2.125 0.237698,-0.2377 2.945204,0.0548 3.375,-0.375 0.316164,-0.31616 1.588371,0.20582 2,0 0.206459,-0.10323 5.069379,-0.27781 5.125,-0.25 0.93811,0.46906 4.319466,0.875 5.5,0.875 0.769778,0 3.316032,-0.066 3.625,-0.375 0.140782,-0.14078 4.416608,0.125 4.875,0.125 1.306057,0 3.01967,-0.0351 4.25,0.375 0.764847,0.25495 1.717451,-0.13585 2.5,0.125 0.38281,0.1276 8.617137,-0.039 9.25,-0.25 1.073943,-0.35798 3.883898,0 5.125,0 2.830576,0 5.757385,-0.25 8.625,-0.25 2.119937,0 10.186279,0.40686 11.499998,-0.25 0.81842,-0.40921 2.1677,0.29115 3,-0.125 1.39863,0.80446 7.32589,-0.46206 8.25,0 1.43177,0.71589 8.5339,0.25 10.75,0.25 0.97783,0 4.29805,-0.53847 5.125,-0.125 0.39099,0.1955 9.69672,0.30943 10.25,0.125 1.45777,-0.48592 3.40233,0.36589 4.875,-0.125 0.53957,-0.17986 5.09559,-0.5772 5.75,-0.25 1.4216,0.7108 3.60012,-0.13329 5.125,0.375 1.1743,0.39143 2.64815,-0.18171 3.875,0.125 2.81022,0.70256 5.86241,0.5 8.75,0.5 1.31981,-0.46915 4.90462,0.29769 6.25,-0.375 0.26667,-0.13333 0.73333,0.13333 1,0 0.30725,-0.15363 2.17217,-0.57783 2.5,-0.25 0.0535,0.0535 5.08673,0.33164 5.5,0.125 0.70159,-0.35079 5.39808,-0.36346 6.125,0 0.91175,0.45588 4.8744,-0.2506 5.5,0.375 0.49764,0.49764 1.22872,0.97872 1.75,1.5 0.34089,0.34089 0.68744,2.31244 1.25,2.875 0.34167,0.34167 0.0244,1.77438 0.5,2.25 0.17122,2.48141 0.25,5.11442 0.25,7.375 0,0.92022 0.006,1.9881 -0.375,2.75 -0.31077,0.62154 0.42327,3.27846 -0.125,4.375 -0.20859,0.41719 0.28365,3.3077 0,3.875 -0.17303,0.34607 0.12073,0.86647 0.25,1.125 0.10639,0.21277 -0.0874,5.04978 -0.125,5.125 -0.69632,1.39265 -0.24722,2.24722 -1.625,3.625 -0.32375,0.32375 -1.47899,0.95799 -3.25,1 -0.55817,0.0733 -5.02053,0.47948 -5.25,0.25 -0.66866,-0.66866 -2.4548,0.2101 -3.375,-0.25 -1.16799,-0.584 -6.32697,-0.58651 -7.5,0 -0.52675,0.26337 -8.74756,0 -9.75,0 -1.24026,0 -5.54919,0.7254 -6.5,0.25 -1.09996,-0.54998 -7.89277,-0.0178 -8.125,-0.25 -0.0587,-0.0587 -3.65636,-0.48432 -3.875,-0.375 -0.45416,0.22708 -3.03353,0.15853 -3.125,0.25 -0.24263,0.24264 -2.0074,0.5 -2.5,0.5 -0.49011,0 -3.74643,0.24644 -3.875,0.375 -0.21065,0.21065 -5.30843,-0.125 -5.75,-0.125 -0.63297,0 -3.875,-0.19608 -5.375,-0.25 -1.41827,-0.0521 -6.46715,0.64143 -7.5,0.125 -0.7656,-0.3828 -2.14934,0.0336 -3,-0.25 -0.63351,-0.21117 -1.40455,0.17273 -2,-0.125 -0.78244,-0.39122 -5.68362,0.125 -6.875,0.125 -0.88921,0 -4.56214,-0.34393 -5.25,0 -0.80852,0.40426 -8.364735,0.38013 -9.124998,0 -0.833333,-0.41667 -2.291667,0.41667 -3.125,0 -0.739709,-0.36985 -10.403005,-0.611 -10.875,-0.375 -0.572759,0.28638 -1.947509,-0.125 -2.625,-0.125 -1.592509,0 -3.286431,0.5 -4.875,0.5 -0.999614,0 -4.419399,-0.3528 -5.125,0 -0.67385,0.33693 -11.124636,0.0627 -11.5,-0.125 -1.048075,-0.52404 -7.593261,0.32837 -8.25,0 -0.62323,-0.12464 -4.094301,0.10965 -4.625,0.375 -0.573579,0.28679 -4.896803,-0.0218 -6.125,-0.25 -0.778034,-0.14456 -2.185058,0.0505 -3,-0.25 -0.792085,-0.29208 -1.977287,-0.72729 -3,-2.125 -0.706513,-1.09672 -1.081365,-2.91813 -1.375,-5.25 -0.339261,-2.42852 0.04769,-7.43145 0.125,-10.5 z"
       style="fill:#000000;stroke:none;stroke-width:2;stroke-linecap:butt;stroke-linejoin:miter;stroke-miterlimit:4;stroke-opacity:1;stroke-dasharray:none;fill-opacity:0.23684211"
       inkscape:export-filename="/home/substack/projects/testling/static/images/progress_box.png"
       inkscape:export-xdpi="100"
       inkscape:export-ydpi="100" />
    <path
       style="fill:#ffffff;fill-opacity:1;stroke:#000000;stroke-width:2;stroke-linecap:butt;stroke-linejoin:miter;stroke-miterlimit:4;stroke-opacity:1;stroke-dasharray:none"
       d="m 24.285534,124.27639 c -0.663403,-1.17318 -0.25,-5.53753 -0.25,-8.5 0,-0.64673 -0.237312,-2.38769 0.125,-2.75 -0.263167,-0.69692 0.008,-1.53889 0.125,-2.25 0.576058,-1.15212 0.722187,-1.97219 1.5,-2.75 1.109729,-1.10973 3.985941,-1.36094 4.75,-2.125 0.237698,-0.2377 2.945204,0.0548 3.375,-0.375 0.316164,-0.31616 1.588371,0.20582 2,0 0.206459,-0.10323 5.069379,-0.27781 5.125,-0.25 0.93811,0.46906 4.319466,0.875 5.5,0.875 0.769778,0 3.316032,-0.066 3.625,-0.375 0.140782,-0.14078 4.416608,0.125 4.875,0.125 1.306057,0 3.01967,-0.0351 4.25,0.375 0.764847,0.25495 1.717451,-0.13585 2.5,0.125 0.38281,0.1276 8.617137,-0.039 9.25,-0.25 1.073943,-0.35798 3.883898,0 5.125,0 2.830576,0 5.757385,-0.25 8.625,-0.25 2.119937,0 10.186279,0.40686 11.5,-0.25 0.818416,-0.40921 2.167702,0.29115 3,-0.125 1.398626,0.80446 7.325886,-0.46206 8.249996,0 1.43177,0.71589 8.5339,0.25 10.75,0.25 0.97783,0 4.29805,-0.53847 5.125,-0.125 0.39099,0.1955 9.69672,0.30943 10.25,0.125 1.45777,-0.48592 3.40233,0.36589 4.875,-0.125 0.53957,-0.17986 5.09559,-0.5772 5.75,-0.25 1.4216,0.7108 3.60012,-0.13329 5.125,0.375 1.1743,0.39143 2.64815,-0.18171 3.875,0.125 2.81022,0.70256 5.86241,0.5 8.75,0.5 1.31981,-0.46915 4.90462,0.29769 6.25,-0.375 0.26667,-0.13333 0.73333,0.13333 1,0 0.30725,-0.15363 2.17217,-0.57783 2.5,-0.25 0.0535,0.0535 5.08673,0.33164 5.5,0.125 0.70159,-0.35079 5.39808,-0.36346 6.125,0 0.91175,0.45588 4.8744,-0.2506 5.5,0.375 0.49764,0.49764 1.22872,0.97872 1.75,1.5 0.34089,0.34089 0.68744,2.31244 1.25,2.875 0.34167,0.34167 0.0244,1.77438 0.5,2.25 0.17122,2.48141 0.25,5.11442 0.25,7.375 0,0.92022 0.006,1.9881 -0.375,2.75 -0.31077,0.62154 0.42327,3.27846 -0.125,4.375 -0.20859,0.41719 0.28365,3.3077 0,3.875 -0.17303,0.34607 0.12073,0.86647 0.25,1.125 0.10639,0.21277 -0.0874,5.04978 -0.125,5.125 -0.69632,1.39265 -0.24722,2.24722 -1.625,3.625 -0.32375,0.32375 -1.47899,0.95799 -3.25,1 -0.55817,0.0733 -5.02053,0.47948 -5.25,0.25 -0.66866,-0.66866 -2.4548,0.2101 -3.375,-0.25 -1.16799,-0.584 -6.32697,-0.58651 -7.5,0 -0.52675,0.26337 -8.74756,0 -9.75,0 -1.24026,0 -5.54919,0.7254 -6.5,0.25 -1.09996,-0.54998 -7.89277,-0.0178 -8.125,-0.25 -0.0587,-0.0587 -3.65636,-0.48432 -3.875,-0.375 -0.45416,0.22708 -3.03353,0.15853 -3.125,0.25 -0.24263,0.24264 -2.0074,0.5 -2.5,0.5 -0.49011,0 -3.74643,0.24644 -3.875,0.375 -0.21065,0.21065 -5.30843,-0.125 -5.75,-0.125 -0.63297,0 -3.875,-0.19608 -5.375,-0.25 -1.41827,-0.0521 -6.46715,0.64143 -7.5,0.125 -0.7656,-0.3828 -2.14934,0.0336 -3,-0.25 -0.63351,-0.21117 -1.40455,0.17273 -2,-0.125 -0.78244,-0.39122 -5.68362,0.125 -6.875,0.125 -0.88921,0 -4.562135,-0.34393 -5.249996,0 -0.80852,0.40426 -8.364737,0.38013 -9.125,0 -0.833333,-0.41667 -2.291667,0.41667 -3.125,0 -0.739709,-0.36985 -10.403005,-0.611 -10.875,-0.375 -0.572759,0.28638 -1.947509,-0.125 -2.625,-0.125 -1.592509,0 -3.286431,0.5 -4.875,0.5 -0.999614,0 -4.419399,-0.3528 -5.125,0 -0.67385,0.33693 -11.124636,0.0627 -11.5,-0.125 -1.048075,-0.52404 -7.593261,0.32837 -8.25,0 -0.62323,-0.12464 -4.094301,0.10965 -4.625,0.375 -0.573579,0.28679 -4.896803,-0.0218 -6.125,-0.25 -0.778034,-0.14456 -2.185058,0.0505 -3,-0.25 -0.792085,-0.29208 -1.977287,-0.72729 -3,-2.125 -0.706513,-1.09672 -1.081365,-2.91813 -1.375,-5.25 -0.339261,-2.42852 0.04769,-7.43145 0.125,-10.5 z"
       id="path4407"
       inkscape:connector-curvature="0"
       sodipodi:nodetypes="csccsssscscssscssscsscssssscccscsssscscscscsccsssscscscscscsssssssssccsssccc"
       inkscape:export-filename="/home/substack/projects/testling/static/images/progress_box.png"
       inkscape:export-xdpi="100"
       inkscape:export-ydpi="100" />
    <path
       sodipodi:nodetypes="csccsssscscssscssscsscssssscccscsssscscscscsccsssscscscscscsssssssssccsssccc"
       inkscape:connector-curvature="0"
       id="path4422"
       d="m 29.258301,124.30517 c -0.624562,-0.86057 -0.235362,-4.06203 -0.235362,-6.23513 0,-0.47439 -0.223418,-1.75146 0.117681,-2.01723 -0.247759,-0.51122 0.0076,-1.12884 0.117681,-1.65048 0.542332,-0.84511 0.679906,-1.44668 1.412181,-2.01725 1.044758,-0.81403 3.752576,-0.9983 4.471902,-1.55876 0.223782,-0.17437 2.772772,0.0402 3.177405,-0.27508 0.297653,-0.23193 1.495376,0.15096 1.882906,0 0.19437,-0.0758 4.772582,-0.2038 4.824948,-0.1834 0.883186,0.34409 4.066574,0.64187 5.177992,0.64187 0.724711,0 3.12189,-0.0484 3.412769,-0.27509 0.132538,-0.10326 4.158029,0.0917 4.589583,0.0917 1.229592,0 2.842878,-0.0258 4.001177,0.27507 0.720067,0.18702 1.6169,-0.0996 2.353632,0.0917 0.360398,0.0935 8.112633,-0.0287 8.708443,-0.18337 1.011066,-0.2626 3.656509,0 4.824948,0 2.664853,0 5.420307,-0.1834 8.120032,-0.1834 1.995822,0 9.589905,0.29844 10.826712,-0.18339 0.770501,-0.30017 2.04079,0.21356 2.82436,-0.0917 1.316759,0.59011 6.896979,-0.33896 7.766979,0 1.34795,0.52512 8.03427,0.18338 10.12063,0.18338 0.92057,0 4.04642,-0.39499 4.82494,-0.0917 0.3681,0.1434 9.129,0.22698 9.64989,0.0917 1.37243,-0.35645 3.20315,0.2684 4.58959,-0.0917 0.50798,-0.13194 4.79726,-0.4234 5.41337,-0.18337 1.33836,0.52139 3.38934,-0.0978 4.82493,0.27506 1.10556,0.28714 2.49312,-0.13328 3.64814,0.0917 2.6457,0.51534 5.51918,0.36676 8.23772,0.36676 1.24253,-0.34414 4.61746,0.21837 5.88408,-0.27509 0.25105,-0.0978 0.69038,0.0978 0.94145,0 0.28926,-0.11273 2.045,-0.42386 2.35362,-0.18337 0.0504,0.0392 4.78892,0.24327 5.17801,0.0917 0.66052,-0.25732 5.08204,-0.26664 5.7664,0 0.85836,0.33439 4.58902,-0.18384 5.17799,0.27507 0.46851,0.36505 1.15678,0.71795 1.64754,1.10033 0.32094,0.25003 0.64719,1.69627 1.17682,2.10893 0.32166,0.25064 0.0231,1.30158 0.47073,1.65047 0.1612,1.82022 0.23536,3.75165 0.23536,5.40989 0,0.67502 0.006,1.45835 -0.35304,2.01724 -0.2926,0.45593 0.39848,2.40488 -0.1177,3.20926 -0.19636,0.30602 0.26707,2.42634 0,2.84248 -0.16289,0.25385 0.11367,0.63559 0.23538,0.82524 0.10015,0.15607 -0.0822,3.70424 -0.11768,3.75942 -0.65556,1.02155 -0.23276,1.64842 -1.52987,2.65909 -0.3048,0.23747 -1.3924,0.70273 -3.05971,0.73354 -0.5255,0.0537 -4.72661,0.35172 -4.94265,0.18337 -0.6295,-0.49048 -2.31106,0.15413 -3.1774,-0.18337 -1.0996,-0.42839 -5.95655,-0.43024 -7.0609,0 -0.49591,0.1932 -8.23541,0 -9.17916,0 -1.16766,0 -5.22431,0.53212 -6.11945,0.18337 -1.03556,-0.40341 -7.43067,-0.0131 -7.64931,-0.18337 -0.0554,-0.0431 -3.44228,-0.35527 -3.64813,-0.27507 -0.42756,0.16656 -2.85592,0.11623 -2.94204,0.18337 -0.22841,0.178 -1.88988,0.36679 -2.35362,0.36679 -0.46143,0 -3.5271,0.18077 -3.64813,0.27506 -0.19833,0.15453 -4.99765,-0.0917 -5.41336,-0.0917 -0.59591,0 -3.64813,-0.14385 -5.06032,-0.1834 -1.33525,-0.0383 -6.08851,0.47053 -7.06089,0.0917 -0.72079,-0.2808 -2.02351,0.0245 -2.82437,-0.18339 -0.59642,-0.1549 -1.32231,0.12673 -1.8829,-0.0917 -0.73663,-0.28697 -5.35086,0.0917 -6.47249,0.0917 -0.83715,0 -4.29504,-0.25228 -4.942629,0 -0.761183,0.29656 -7.875007,0.27885 -8.59076,0 -0.784544,-0.30563 -2.157498,0.30566 -2.942042,0 -0.696401,-0.2713 -9.793942,-0.44817 -10.238303,-0.27507 -0.539226,0.21008 -1.833489,-0.0917 -2.471315,-0.0917 -1.499272,0 -3.094021,0.36676 -4.589583,0.36676 -0.941091,0 -4.160657,-0.25878 -4.824948,0 -0.634399,0.24717 -10.473324,0.0461 -10.826712,-0.0917 -0.986714,-0.3844 -7.148699,0.24086 -7.766988,0 -0.586742,-0.0914 -3.854594,0.0803 -4.354222,0.27507 -0.539998,0.21038 -4.610111,-0.0159 -5.766401,-0.18338 -0.732482,-0.10598 -2.057128,0.0371 -2.82436,-0.18337 -0.74571,-0.21427 -1.861522,-0.53351 -2.824357,-1.5588 -0.665151,-0.80448 -1.018057,-2.14056 -1.2945,-3.8511 -0.319398,-1.78142 0.0449,-5.45129 0.117681,-7.70221 z"
       style="fill:#ffffff;fill-opacity:1;stroke:#000000;stroke-width:1.66204357;stroke-linecap:butt;stroke-linejoin:miter;stroke-miterlimit:4;stroke-opacity:1;stroke-dasharray:none"
       inkscape:export-filename="/home/substack/projects/testling/static/images/progress_box.png"
       inkscape:export-xdpi="100"
       inkscape:export-ydpi="100" />
    <path
       inkscape:export-ydpi="100"
       inkscape:export-xdpi="100"
       inkscape:export-filename="/home/substack/projects/testling/static/images/progress_full.png"
       style="fill:#000000;fill-opacity:0.23684214;stroke:none"
       d="m 29.235282,182.25914 c -0.663403,-1.17318 -0.25,-5.53753 -0.25,-8.5 0,-0.64673 -0.237312,-2.38769 0.125,-2.75 -0.263167,-0.69692 0.008,-1.53889 0.125,-2.25 0.576058,-1.15212 0.722187,-1.97219 1.5,-2.75 1.109729,-1.10973 3.985941,-1.36094 4.75,-2.125 0.237698,-0.2377 2.945204,0.0548 3.375,-0.375 0.316164,-0.31616 1.588371,0.20582 2,0 0.206459,-0.10323 5.069379,-0.27781 5.125,-0.25 0.93811,0.46906 4.319466,0.875 5.5,0.875 0.769778,0 3.316032,-0.066 3.625,-0.375 0.140782,-0.14078 4.416608,0.125 4.875,0.125 1.306057,0 3.01967,-0.0351 4.25,0.375 0.764847,0.25495 1.717451,-0.13585 2.5,0.125 0.38281,0.1276 8.617137,-0.039 9.25,-0.25 1.073943,-0.35798 3.883898,0 5.125,0 2.830576,0 5.757385,-0.25 8.625,-0.25 2.119937,0 10.186279,0.40686 11.499998,-0.25 0.81842,-0.40921 2.1677,0.29115 3,-0.125 1.39863,0.80446 7.32589,-0.46206 8.25,0 1.43177,0.71589 8.5339,0.25 10.75,0.25 0.97783,0 4.29805,-0.53847 5.125,-0.125 0.39099,0.1955 9.69672,0.30943 10.25,0.125 1.45777,-0.48592 3.40233,0.36589 4.875,-0.125 0.53957,-0.17986 5.09559,-0.5772 5.75,-0.25 1.4216,0.7108 3.60012,-0.13329 5.125,0.375 1.1743,0.39143 2.64815,-0.18171 3.875,0.125 2.81022,0.70256 5.86241,0.5 8.75,0.5 1.31981,-0.46915 4.90462,0.29769 6.25,-0.375 0.26667,-0.13333 0.73333,0.13333 1,0 0.30725,-0.15363 2.17217,-0.57783 2.5,-0.25 0.0535,0.0535 5.08673,0.33164 5.5,0.125 0.70159,-0.35079 5.39808,-0.36346 6.125,0 0.91175,0.45588 4.8744,-0.2506 5.5,0.375 0.49764,0.49764 1.22872,0.97872 1.75,1.5 0.34089,0.34089 0.68744,2.31244 1.25,2.875 0.34167,0.34167 0.0244,1.77438 0.5,2.25 0.17122,2.48141 0.25,5.11442 0.25,7.375 0,0.92022 0.006,1.9881 -0.375,2.75 -0.31077,0.62154 0.42327,3.27846 -0.125,4.375 -0.20859,0.41719 0.28365,3.3077 0,3.875 -0.17303,0.34607 0.12073,0.86647 0.25,1.125 0.10639,0.21277 -0.0874,5.04978 -0.125,5.125 -0.69632,1.39265 -0.24722,2.24722 -1.625,3.625 -0.32375,0.32375 -1.47899,0.95799 -3.25,1 -0.55817,0.0733 -5.02053,0.47948 -5.25,0.25 -0.66866,-0.66866 -2.4548,0.2101 -3.375,-0.25 -1.16799,-0.584 -6.32697,-0.58651 -7.5,0 -0.52675,0.26337 -8.74756,0 -9.75,0 -1.24026,0 -5.54919,0.7254 -6.5,0.25 -1.09996,-0.54998 -7.89277,-0.0178 -8.125,-0.25 -0.0587,-0.0587 -3.65636,-0.48432 -3.875,-0.375 -0.45416,0.22708 -3.03353,0.15853 -3.125,0.25 -0.24263,0.24264 -2.0074,0.5 -2.5,0.5 -0.49011,0 -3.74643,0.24644 -3.875,0.375 -0.21065,0.21065 -5.30843,-0.125 -5.75,-0.125 -0.63297,0 -3.875,-0.19608 -5.375,-0.25 -1.41827,-0.0521 -6.46715,0.64143 -7.5,0.125 -0.7656,-0.3828 -2.14934,0.0336 -3,-0.25 -0.63351,-0.21117 -1.40455,0.17273 -2,-0.125 -0.78244,-0.39122 -5.68362,0.125 -6.875,0.125 -0.88921,0 -4.56214,-0.34393 -5.25,0 -0.80852,0.40426 -8.364735,0.38013 -9.124998,0 -0.833333,-0.41667 -2.291667,0.41667 -3.125,0 -0.739709,-0.36985 -10.403005,-0.611 -10.875,-0.375 -0.572759,0.28638 -1.947509,-0.125 -2.625,-0.125 -1.592509,0 -3.286431,0.5 -4.875,0.5 -0.999614,0 -4.419399,-0.3528 -5.125,0 -0.67385,0.33693 -11.124636,0.0627 -11.5,-0.125 -1.048075,-0.52404 -7.593261,0.32837 -8.25,0 -0.62323,-0.12464 -4.094301,0.10965 -4.625,0.375 -0.573579,0.28679 -4.896803,-0.0218 -6.125,-0.25 -0.778034,-0.14456 -2.185058,0.0505 -3,-0.25 -0.792085,-0.29208 -1.977287,-0.72729 -3,-2.125 -0.706513,-1.09672 -1.081365,-2.91813 -1.375,-5.25 -0.339261,-2.42852 0.04769,-7.43145 0.125,-10.5 z"
       id="path4424"
       inkscape:connector-curvature="0"
       sodipodi:nodetypes="csccsssscscssscssscsscssssscccscsssscscscscsccsssscscscscscsssssssssccsssccc" />
    <path
       inkscape:export-ydpi="100"
       inkscape:export-xdpi="100"
       inkscape:export-filename="/home/substack/projects/testling/static/images/progress_full.png"
       sodipodi:nodetypes="csccsssscscssscssscsscssssscccscsssscscscscsccsssscscscscscsssssssssccsssccc"
       inkscape:connector-curvature="0"
       id="path4426"
       d="m 24.285534,177.66295 c -0.663403,-1.17318 -0.25,-5.53753 -0.25,-8.5 0,-0.64673 -0.237312,-2.38769 0.125,-2.75 -0.263167,-0.69692 0.008,-1.53889 0.125,-2.25 0.576058,-1.15212 0.722187,-1.97219 1.5,-2.75 1.109729,-1.10973 3.985941,-1.36094 4.75,-2.125 0.237698,-0.2377 2.945204,0.0548 3.375,-0.375 0.316164,-0.31616 1.588371,0.20582 2,0 0.206459,-0.10323 5.069379,-0.27781 5.125,-0.25 0.93811,0.46906 4.319466,0.875 5.5,0.875 0.769778,0 3.316032,-0.066 3.625,-0.375 0.140782,-0.14078 4.416608,0.125 4.875,0.125 1.306057,0 3.01967,-0.0351 4.25,0.375 0.764847,0.25495 1.717451,-0.13585 2.5,0.125 0.38281,0.1276 8.617137,-0.039 9.25,-0.25 1.073943,-0.35798 3.883898,0 5.125,0 2.830576,0 5.757385,-0.25 8.625,-0.25 2.119937,0 10.186279,0.40686 11.5,-0.25 0.818416,-0.40921 2.167702,0.29115 3,-0.125 1.398626,0.80446 7.325886,-0.46206 8.249996,0 1.43177,0.71589 8.5339,0.25 10.75,0.25 0.97783,0 4.29805,-0.53847 5.125,-0.125 0.39099,0.1955 9.69672,0.30943 10.25,0.125 1.45777,-0.48592 3.40233,0.36589 4.875,-0.125 0.53957,-0.17986 5.09559,-0.5772 5.75,-0.25 1.4216,0.7108 3.60012,-0.13329 5.125,0.375 1.1743,0.39143 2.64815,-0.18171 3.875,0.125 2.81022,0.70256 5.86241,0.5 8.75,0.5 1.31981,-0.46915 4.90462,0.29769 6.25,-0.375 0.26667,-0.13333 0.73333,0.13333 1,0 0.30725,-0.15363 2.17217,-0.57783 2.5,-0.25 0.0535,0.0535 5.08673,0.33164 5.5,0.125 0.70159,-0.35079 5.39808,-0.36346 6.125,0 0.91175,0.45588 4.8744,-0.2506 5.5,0.375 0.49764,0.49764 1.22872,0.97872 1.75,1.5 0.34089,0.34089 0.68744,2.31244 1.25,2.875 0.34167,0.34167 0.0244,1.77438 0.5,2.25 0.17122,2.48141 0.25,5.11442 0.25,7.375 0,0.92022 0.006,1.9881 -0.375,2.75 -0.31077,0.62154 0.42327,3.27846 -0.125,4.375 -0.20859,0.41719 0.28365,3.3077 0,3.875 -0.17303,0.34607 0.12073,0.86647 0.25,1.125 0.10639,0.21277 -0.0874,5.04978 -0.125,5.125 -0.69632,1.39265 -0.24722,2.24722 -1.625,3.625 -0.32375,0.32375 -1.47899,0.95799 -3.25,1 -0.55817,0.0733 -5.02053,0.47948 -5.25,0.25 -0.66866,-0.66866 -2.4548,0.2101 -3.375,-0.25 -1.16799,-0.584 -6.32697,-0.58651 -7.5,0 -0.52675,0.26337 -8.74756,0 -9.75,0 -1.24026,0 -5.54919,0.7254 -6.5,0.25 -1.09996,-0.54998 -7.89277,-0.0178 -8.125,-0.25 -0.0587,-0.0587 -3.65636,-0.48432 -3.875,-0.375 -0.45416,0.22708 -3.03353,0.15853 -3.125,0.25 -0.24263,0.24264 -2.0074,0.5 -2.5,0.5 -0.49011,0 -3.74643,0.24644 -3.875,0.375 -0.21065,0.21065 -5.30843,-0.125 -5.75,-0.125 -0.63297,0 -3.875,-0.19608 -5.375,-0.25 -1.41827,-0.0521 -6.46715,0.64143 -7.5,0.125 -0.7656,-0.3828 -2.14934,0.0336 -3,-0.25 -0.63351,-0.21117 -1.40455,0.17273 -2,-0.125 -0.78244,-0.39122 -5.68362,0.125 -6.875,0.125 -0.88921,0 -4.562135,-0.34393 -5.249996,0 -0.80852,0.40426 -8.364737,0.38013 -9.125,0 -0.833333,-0.41667 -2.291667,0.41667 -3.125,0 -0.739709,-0.36985 -10.403005,-0.611 -10.875,-0.375 -0.572759,0.28638 -1.947509,-0.125 -2.625,-0.125 -1.592509,0 -3.286431,0.5 -4.875,0.5 -0.999614,0 -4.419399,-0.3528 -5.125,0 -0.67385,0.33693 -11.124636,0.0627 -11.5,-0.125 -1.048075,-0.52404 -7.593261,0.32837 -8.25,0 -0.62323,-0.12464 -4.094301,0.10965 -4.625,0.375 -0.573579,0.28679 -4.896803,-0.0218 -6.125,-0.25 -0.778034,-0.14456 -2.185058,0.0505 -3,-0.25 -0.792085,-0.29208 -1.977287,-0.72729 -3,-2.125 -0.706513,-1.09672 -1.081365,-2.91813 -1.375,-5.25 -0.339261,-2.42852 0.04769,-7.43145 0.125,-10.5 z"
       style="fill:#ffffff;fill-opacity:1;stroke:#000000;stroke-width:2;stroke-linecap:butt;stroke-linejoin:miter;stroke-miterlimit:4;stroke-opacity:1;stroke-dasharray:none" />
    <path
       inkscape:export-ydpi="100"
       inkscape:export-xdpi="100"
       inkscape:export-filename="/home/substack/projects/testling/static/images/progress_full.png"
       style="fill:#04be9a;fill-opacity:1;stroke:#000000;stroke-width:1.66204357000000003;stroke-linecap:butt;stroke-linejoin:miter;stroke-miterlimit:4;stroke-opacity:1;stroke-dasharray:none"
       d="m 29.258301,177.69173 c -0.624562,-0.86057 -0.235362,-4.06203 -0.235362,-6.23513 0,-0.47439 -0.223418,-1.75146 0.117681,-2.01723 -0.247759,-0.51122 0.0076,-1.12884 0.117681,-1.65048 0.542332,-0.84511 0.679906,-1.44668 1.412181,-2.01725 1.044758,-0.81403 3.752576,-0.9983 4.471902,-1.55876 0.223782,-0.17437 2.772772,0.0402 3.177405,-0.27508 0.297653,-0.23193 1.495376,0.15096 1.882906,0 0.19437,-0.0758 4.772582,-0.2038 4.824948,-0.1834 0.883186,0.34409 4.066574,0.64187 5.177992,0.64187 0.724711,0 3.12189,-0.0484 3.412769,-0.27509 0.132538,-0.10326 4.158029,0.0917 4.589583,0.0917 1.229592,0 2.842878,-0.0258 4.001177,0.27507 0.720067,0.18702 1.6169,-0.0996 2.353632,0.0917 0.360398,0.0935 8.112633,-0.0287 8.708443,-0.18337 1.011066,-0.2626 3.656509,0 4.824948,0 2.664853,0 5.420307,-0.1834 8.120032,-0.1834 1.995822,0 9.589905,0.29844 10.826712,-0.18339 0.770501,-0.30017 2.04079,0.21356 2.82436,-0.0917 1.316759,0.59011 6.896979,-0.33896 7.766979,0 1.34795,0.52512 8.03427,0.18338 10.12063,0.18338 0.92057,0 4.04642,-0.39499 4.82494,-0.0917 0.3681,0.1434 9.129,0.22698 9.64989,0.0917 1.37243,-0.35645 3.20315,0.2684 4.58959,-0.0917 0.50798,-0.13194 4.79726,-0.4234 5.41337,-0.18337 1.33836,0.52139 3.38934,-0.0978 4.82493,0.27506 1.10556,0.28714 2.49312,-0.13328 3.64814,0.0917 2.6457,0.51534 5.51918,0.36676 8.23772,0.36676 1.24253,-0.34414 4.61746,0.21837 5.88408,-0.27509 0.25105,-0.0978 0.69038,0.0978 0.94145,0 0.28926,-0.11273 2.045,-0.42386 2.35362,-0.18337 0.0504,0.0392 4.78892,0.24327 5.17801,0.0917 0.66052,-0.25732 5.08204,-0.26664 5.7664,0 0.85836,0.33439 4.58902,-0.18384 5.17799,0.27507 0.46851,0.36505 1.15678,0.71795 1.64754,1.10033 0.32094,0.25003 0.64719,1.69627 1.17682,2.10893 0.32166,0.25064 0.0231,1.30158 0.47073,1.65047 0.1612,1.82022 0.23536,3.75165 0.23536,5.40989 0,0.67502 0.006,1.45835 -0.35304,2.01724 -0.2926,0.45593 0.39848,2.40488 -0.1177,3.20926 -0.19636,0.30602 0.26707,2.42634 0,2.84248 -0.16289,0.25385 0.11367,0.63559 0.23538,0.82524 0.10015,0.15607 -0.0822,3.70424 -0.11768,3.75942 -0.65556,1.02155 -0.23276,1.64842 -1.52987,2.65909 -0.3048,0.23747 -1.3924,0.70273 -3.05971,0.73354 -0.5255,0.0537 -4.72661,0.35172 -4.94265,0.18337 -0.6295,-0.49048 -2.31106,0.15413 -3.1774,-0.18337 -1.0996,-0.42839 -5.95655,-0.43024 -7.0609,0 -0.49591,0.1932 -8.23541,0 -9.17916,0 -1.16766,0 -5.22431,0.53212 -6.11945,0.18337 -1.03556,-0.40341 -7.43067,-0.0131 -7.64931,-0.18337 -0.0554,-0.0431 -3.44228,-0.35527 -3.64813,-0.27507 -0.42756,0.16656 -2.85592,0.11623 -2.94204,0.18337 -0.22841,0.178 -1.88988,0.36679 -2.35362,0.36679 -0.46143,0 -3.5271,0.18077 -3.64813,0.27506 -0.19833,0.15453 -4.99765,-0.0917 -5.41336,-0.0917 -0.59591,0 -3.64813,-0.14385 -5.06032,-0.1834 -1.33525,-0.0383 -6.08851,0.47053 -7.06089,0.0917 -0.72079,-0.2808 -2.02351,0.0245 -2.82437,-0.18339 -0.59642,-0.1549 -1.32231,0.12673 -1.8829,-0.0917 -0.73663,-0.28697 -5.35086,0.0917 -6.47249,0.0917 -0.83715,0 -4.29504,-0.25228 -4.942629,0 -0.761183,0.29656 -7.875007,0.27885 -8.59076,0 -0.784544,-0.30563 -2.157498,0.30566 -2.942042,0 -0.696401,-0.2713 -9.793942,-0.44817 -10.238303,-0.27507 -0.539226,0.21008 -1.833489,-0.0917 -2.471315,-0.0917 -1.499272,0 -3.094021,0.36676 -4.589583,0.36676 -0.941091,0 -4.160657,-0.25878 -4.824948,0 -0.634399,0.24717 -10.473324,0.0461 -10.826712,-0.0917 -0.986714,-0.3844 -7.148699,0.24086 -7.766988,0 -0.586742,-0.0914 -3.854594,0.0803 -4.354222,0.27507 -0.539998,0.21038 -4.610111,-0.0159 -5.766401,-0.18338 -0.732482,-0.10598 -2.057128,0.0371 -2.82436,-0.18337 -0.74571,-0.21427 -1.861522,-0.53351 -2.824357,-1.5588 -0.665151,-0.80448 -1.018057,-2.14056 -1.2945,-3.8511 -0.319398,-1.78142 0.0449,-5.45129 0.117681,-7.70221 z"
       id="path4428"
       inkscape:connector-curvature="0"
       sodipodi:nodetypes="csccsssscscssscssscsscssssscccscsssscscscscsccsssscscscscscsssssssssccsssccc" />
    <path
       inkscape:export-ydpi="100"
       inkscape:export-xdpi="100"
       inkscape:export-filename="/home/substack/projects/testling/static/images/up.png"
       inkscape:connector-curvature="0"
       id="path3338"
       d="m 195.72837,29.058667 c -6.26605,-5.54412 -11.77094,-11.94074 -18.4375,-17.15625 0.39162,11.25328 -0.46202,22.86794 0.375,33.90625 3.43997,3.68363 6.68954,-3.11843 9.09375,-4.96875 3.84423,-3.02852 6.7735,-6.79953 10.09375,-10.4375 l -0.64193,-0.76676 -0.48307,-0.57699 z"
       style="fill:#75963c;fill-opacity:0.45374451;stroke:none" />
    <path
       inkscape:export-ydpi="100"
       inkscape:export-xdpi="100"
       inkscape:export-filename="/home/substack/projects/testling/static/images/up.png"
       sodipodi:nodetypes="ccccccccc"
       inkscape:connector-curvature="0"
       id="path3340"
       d="m 191.22924,26.918887 c -2.09254,2.12626 -3.41197,4.24485 -6.32007,6.90846 -2.34831,1.4242 -4.43545,4.58709 -7.31682,7.19524 -1.98568,1.83653 -0.93215,-1.33151 -0.98385,-2.89666 -0.6182,-2.56201 -0.11175,-9.23479 -0.21719,-11.45905 -0.0214,-5.60085 0.005,-8.23271 -0.0225,-13.83355 1.76618,1.57272 3.15444,2.50136 4.74777,4.47506 1.44265,1.52752 3.33088,2.7785 4.94925,4.82312 1.04851,1.556 3.34431,2.52852 5.16345,4.78738 z"
       style="fill:#b8ff52;fill-opacity:1;stroke:#000000;stroke-width:3;stroke-linecap:round;stroke-linejoin:round;stroke-miterlimit:4;stroke-opacity:1;stroke-dasharray:none" />
    <path
       inkscape:export-ydpi="100"
       inkscape:export-xdpi="100"
       inkscape:export-filename="/home/substack/projects/testling/static/images/refresh.png"
       inkscape:connector-curvature="0"
       id="path4188"
       d="m 144.02897,14.432191 c -1.94801,-2.607123 -4.28373,-5.323085 -6.18074,-7.630468 -0.32729,-0.3980904 -0.71833,-0.5351447 -1.12198,-1.0261155 -0.0143,-0.017013 -0.0901,-0.2972103 -0.18208,-0.2214934 -0.0405,0.033258 0.92813,5.3609879 0.78966,5.4748359 -0.16241,0.13349 -0.98945,-0.105894 -1.22046,-0.01735 -1.78094,0.683336 -3.55588,1.36436 -5.29032,2.029799 -0.34656,0.133007 -0.83551,0.872479 -1.12701,1.112161 -0.0283,0.02329 -0.41554,0.23548 -0.43304,0.263093 -0.63652,1.013136 -1.56207,2.230714 -2.26142,3.343841 -0.43842,0.697885 -0.61822,1.714559 -1.23529,2.221894 -0.073,0.06012 -0.95737,2.205576 -1.16393,2.534358 -0.4436,0.706069 -0.23237,2.615191 -0.12315,3.348856 0.0992,0.667101 -0.14097,1.398169 0.005,2.03735 0.79431,3.479102 0.83476,6.094012 3.01637,8.747513 1.20079,1.460548 3.31518,2.000773 4.27394,3.166922 0.30583,0.372005 1.62031,0.503635 1.94875,0.903117 0.16529,0.200919 3.38071,0.946193 3.94673,1.301793 0.0864,0.05441 1.21396,0.08392 1.21061,0.118113 -0.006,0.0591 -0.19406,-0.758861 -0.22389,-0.836599 -0.25388,-0.661713 -0.13016,-1.434184 -0.29765,-2.167784 -0.21343,-0.934782 0.27496,-3.585867 0.0105,-4.27649 -0.0203,-0.05264 -0.21165,-0.93728 -0.11316,-0.927658 0.0524,0.004 -0.48622,-0.04756 -0.80707,-0.07888 -0.38831,-0.03786 -1.00119,-0.375723 -1.37298,-0.54138 -0.71894,-0.320129 -3.04882,-0.773967 -3.35128,-1.141829 -0.20001,-0.243129 -0.75824,-0.470817 -0.94977,-0.703783 -0.69137,-0.840893 -1.08387,-1.812549 -1.54022,-3.001982 -0.16515,-0.430378 -0.0334,-1.73623 0.20677,-2.118536 0.25368,-0.403758 0.43596,-2.214197 0.75056,-2.472861 0.28375,-0.233351 0.49349,-0.785483 0.72345,-1.151549 0.62875,-1.00076 1.9618,-2.169625 2.82732,-2.881216 0.1985,-0.163135 0.84975,-0.142069 1.04823,-0.305085 0.0422,-0.03487 0.60597,-0.278658 0.63482,-0.243422 0.30497,0.370978 -0.87269,6.048685 -0.52927,6.466415 0.1312,0.159453 1.49155,-1.29159 1.79137,-1.658379 1.43177,-1.751508 2.53258,-3.519863 3.67877,-5.344273 0.37681,-0.599756 0.9324,-2.251186 1.37556,-2.61556 0.36727,-0.301923 0.62789,-0.794581 1.02611,-1.121957 0.13062,-0.107645 -0.56085,-1.011116 0.26085,-0.585646 0.18975,0.09832 -0.39657,0.420578 -0.26085,0.585646"
       style="fill:#5bb8d2;fill-opacity:1;stroke:#000000;stroke-width:2.53564668;stroke-linecap:round;stroke-linejoin:round;stroke-miterlimit:4;stroke-opacity:1;stroke-dasharray:none" />
    <path
       style="fill:#add6e1;fill-opacity:1;stroke:#000000;stroke-width:2.53564668;stroke-linecap:round;stroke-linejoin:round;stroke-miterlimit:4;stroke-opacity:1;stroke-dasharray:none"
       d="m 135.12104,37.502431 c 1.94801,2.607123 4.28373,5.323085 6.18074,7.630468 0.32729,0.39809 0.71833,0.535144 1.12198,1.026115 0.0143,0.01701 0.0901,0.297211 0.18208,0.221494 0.0405,-0.03326 -0.92813,-5.360988 -0.78966,-5.474836 0.16241,-0.13349 0.98945,0.105894 1.22046,0.01735 1.78094,-0.683336 3.55588,-1.36436 5.29032,-2.029799 0.34656,-0.133007 0.83551,-0.872479 1.12701,-1.112161 0.0283,-0.02329 0.41554,-0.23548 0.43304,-0.263093 0.63652,-1.013136 1.56207,-2.230714 2.26142,-3.343841 0.43842,-0.697885 0.61822,-1.714559 1.23529,-2.221894 0.073,-0.06012 0.95737,-2.205576 1.16393,-2.534358 0.4436,-0.706069 0.23237,-2.615191 0.12315,-3.348856 -0.0992,-0.667101 0.14097,-1.398169 -0.005,-2.03735 -0.79431,-3.479102 -0.83476,-6.094012 -3.01637,-8.747513 -1.20079,-1.460548 -3.31518,-2.000773 -4.27394,-3.166922 -0.30583,-0.372005 -1.62031,-0.503635 -1.94875,-0.903117 -1.58446,-0.580369 -3.16579,-0.939206 -5.03234,-1.544906 1.0685,0.9409 1.19406,1.883861 1.53639,2.274099 0.50388,0.599213 2.06766,1.496684 2.23515,2.230284 -0.4903,0.939142 -1.92346,3.01028 -2.46527,4.033028 0.38831,0.03786 1.00119,0.250723 1.37298,0.41638 0.71894,0.320129 3.04882,0.773967 3.35128,1.141829 0.20001,0.243129 0.75824,0.470817 0.94977,0.703783 0.69137,0.840893 1.08387,1.812549 1.54022,3.001982 0.16515,0.430378 0.0334,1.73623 -0.20677,2.118536 -0.25368,0.403758 -0.43596,2.214197 -0.75056,2.472861 -0.28375,0.233351 -0.49349,0.785483 -0.72345,1.151549 -0.62875,1.00076 -1.9618,2.169625 -2.82732,2.881216 -0.1985,0.163135 -0.84975,0.142069 -1.04823,0.305085 -0.0422,0.03487 -0.60597,0.278658 -0.63482,0.243422 -0.30497,-0.370978 0.87269,-6.048685 0.52927,-6.466415 -0.1312,-0.159453 -1.49155,1.29159 -1.79137,1.658379 -1.43177,1.751508 -2.53258,3.519863 -3.67877,5.344273 -0.37681,0.599756 -0.9324,2.251186 -1.37556,2.61556 -0.36727,0.301923 -0.62789,0.794581 -1.02611,1.121957 -0.13062,0.107645 0.56085,1.011116 -0.26085,0.585646 -0.18975,-0.09832 0.39657,-0.420578 0.26085,-0.585646"
       id="path4235"
       inkscape:connector-curvature="0"
       inkscape:export-filename="/home/substack/projects/testling/static/images/refresh.png"
       inkscape:export-xdpi="100"
       inkscape:export-ydpi="100"
       sodipodi:nodetypes="cscccccccccsccsccccccccccccccccccccccc" />
  </g>
</svg>
